<svg xmlns="http://www.w3.org/2000/svg" width="100%" height="100%" viewBox="0 0 130 21.94">
    <title>Ušetřeno.cz</title>
    <g fill="#fff">
        <path d="M3.78,6.76v8.42a3.38,3.38,0,0,0,3.6,3.65A3.38,3.38,0,0,0,11,15.18V6.76H14.8v8.14c0,4.25-3,7-7.42,7S0,19.15,0,14.89V6.76Z"
              class="use-1"></path>
        <path d="M18.16,0h3.28l2.1,2.59L25.63,0h3.22L25.63,4.89H21.41ZM20.4,17c.18,1.32,1.21,2.18,3.25,2.18s3.07-.72,3.07-1.7c0-3.25-9.75-.06-9.75-6.41,0-2.5,2.39-4.6,6.56-4.6,4,0,6.17,1.87,6.56,4.92H26.31a2.63,2.63,0,0,0-2.9-2.16c-1.77,0-2.72.72-2.72,1.7,0,3.25,9.78-.06,9.78,6.41,0,2.47-2.42,4.6-6.94,4.6-4.31,0-6.56-1.87-6.94-4.94Z"
              class="use-2"></path>
        <path d="M44.44,12.71a4.17,4.17,0,0,0-8.15,0ZM40.37,6.47c5,0,8.6,3.71,8,8.83H36.2A4.17,4.17,0,0,0,40.37,19,3.83,3.83,0,0,0,44,16.82h4a7.62,7.62,0,0,1-7.62,5.12c-4.67,0-8.07-3.28-8.07-7.73s3.43-7.73,8.09-7.73"
              class="use-3"></path>
        <path d="M52.1,2.67h3.78V6.76H60.6v3H55.88V16c0,2.19,1.33,3.33,4.73,2.42v3.08c-6,1.38-8.51-1.35-8.51-5.46V9.77H49.35v-3H52.1Z"
              class="use-4"></path>
        <path d="M63,6.76h3.78v2A5.22,5.22,0,0,1,72.1,6.58V10c-3.1-.55-5.32.83-5.32,3.31v8.31H63ZM61.67,0h3.28L67,2.59,69.14,0h3.22L69.14,4.89H64.92Z"
              class="use-5"></path>
        <path d="M85.31,12.71a4.17,4.17,0,0,0-8.15,0ZM81.23,6.47c5,0,8.6,3.71,8,8.83H77.07A4.17,4.17,0,0,0,81.23,19a3.83,3.83,0,0,0,3.6-2.19h4a7.62,7.62,0,0,1-7.62,5.12c-4.67,0-8.07-3.28-8.07-7.73s3.43-7.73,8.09-7.73"
              class="use-6"></path>
        <path d="M91.07,6.76h3.78v2a6.23,6.23,0,0,1,11,3.85v9.08h-3.78V13a3.62,3.62,0,0,0-7.24,0v8.6H91.07Z"
              class="use-7"></path>
        <path d="M115.83,18.86c2.39,0,4.2-2,4.2-4.66s-1.8-4.66-4.2-4.66-4.2,1.93-4.2,4.66,1.8,4.66,4.2,4.66m0-12.39c4.73,0,8.15,3.25,8.15,7.73s-3.43,7.73-8.15,7.73-8.15-3.28-8.15-7.73,3.46-7.73,8.15-7.73"
              class="use-8"></path>
    </g>
    <g fill="#e10054">
        <path d="M127.49,16.93a2.47,2.47,0,1,1,0,4.94,2.47,2.47,0,1,1,0-4.94" class="use-9"></path>
    </g>
</svg>