<svg xmlns="http://www.w3.org/2000/svg" viewBox="0 0 400 400" width="100%" height="100%"><g fill-rule="evenodd"><path
  d="M138.24 16.06c.11.19.05.34-.15.34s-.36.26-.36.58c0 .32.14.5.3.4.17-.1.4.04.54.32.13.27.16.08.06-.43-.16-.88-.13-.9.76-.31.84.54.96.54 1.17 0 .13-.34.06-.5-.16-.36s-.4.08-.4-.13c0-.2-.44-.46-.99-.57-.54-.1-.9-.03-.77.16m1.9 3.04c.23.37-.16.5-1.52.5-1.57 0-1.82.11-1.82.82 0 .46-.16.73-.36.6-.2-.12-.79-.05-1.3.15-.52.21-.74.4-.5.4.23.02.43.3.43.65 0 .34-.22.53-.49.43-.66-.25-1.37.52-1.1 1.2.14.38-.12.55-.86.55-.59 0-.98-.14-.87-.32.1-.17-.15-.34-.57-.37-.42-.03-.88.13-1.02.36-.17.27-.4.23-.64-.13-.3-.44-.35-.43-.22.06.1.38.54.55 1.18.48.63-.08 1.1.1 1.25.5.14.33.11.6-.04.57-.88-.13-1.29.14-1.29.85 0 .63-.27.8-1.22.8-.68 0-1.14-.14-1.03-.32.1-.17-.2-.34-.67-.38-.69-.05-.75.01-.28.31.33.2.4.38.14.38-.25 0-.43.32-.4.71.04.44-.2.68-.64.64-.5-.04-.7.24-.7.95 0 .9-.12.99-1.18.77-.66-.13-1.3-.06-1.43.16-.14.22-.46.27-.72.12-.27-.15-.33-.11-.14.1.19.2.53.36.77.36s.5.23.6.5c.1.27-.03.5-.27.5-.23 0-.43.37-.43.82 0 .55-.22.78-.7.7-.47-.08-.74.18-.83.78-.08.58-.4.9-.9.9s-.77.28-.77.8c0 .54-.27.8-.82.8-.56 0-.73-.16-.53-.5.22-.36.11-.35-.36.03-.36.3-.84.42-1.07.28-.27-.16-.42.4-.42 1.57 0 1.7.24 2.04 1.32 1.86.17-.03.29.18.26.45-.17 1.35.5 2.36 1.06 1.62.51-.68.53-.68.55 0 .01.69-1.87 1.74-2.31 1.3-.12-.11 0-.21.25-.21.26 0 .47-.29.47-.64 0-.43-.22-.56-.63-.4-.35.13-.81.24-1.03.24-.22 0-.11.28.23.63.35.34.63.88.63 1.2 0 .77.27.72 1.3-.23 1.49-1.4 2.6-1.07 2.77.83.09.9.02 1.72-.16 1.82-.17.11-.31-.07-.31-.39 0-.39-.27-.52-.8-.38-.77.2-1.13.89-.5.95l.98.16c.38.07.9-.12 1.15-.43.76-.9 1.17-.65 1.17.72 0 1 .1 1.17.48.8.26-.26.62-.48.8-.48.44 0 .2 1.74-.28 2.1-.25.18-.22.29.08.3.26 0 .58-.18.72-.4.4-.65 1-.46 1 .33 0 .84 1.72 2.47 2.6 2.47.75 0 .84 2.38.1 2.43-.28.02.08.3.8.6.72.32 1.3.74 1.3.95 0 .58 1.96 2.42 2.58 2.42.57 0 .6 1.39.05 2.44-.16.3-.03.24.28-.14.74-.9 1.25-.9.91-.01-.14.38-.13.56.02.4.55-.54 1.41.56.92 1.16-.51.61-1.34.76-.98.18.13-.2.05-.49-.17-.62-.24-.15-.37.16-.32.74.06.82.2.92.8.6.89-.47.91-.2.04.66-.61.62-.6.65.3.53.79-.11.96.03.92.75-.02.5.11.8.3.68.2-.12.35.1.36.5 0 .57.08.6.35.19.29-.47.38-.47.56 0 .15.38.23.4.25.04.04-.65 1.1-.65 1.37 0 .16.4.2.4.23 0 .02-.28.23-.5.48-.5.26 0 .37.48.26 1.2-.1.66-.02 1.2.16 1.2s.33-.15.33-.33c0-.19.28-.34.62-.34.34 0 .53.23.42.5-.22.58.7 1.5 1.1 1.1.14-.15.26.13.26.6 0 .76.38 1.04 1.25.93.14-.01.37.53.5 1.2.21 1.07.34 1.17.87.72.34-.28.6-.35.56-.15-.18.93.08 1.37.82 1.37.59 0 .8.27.8 1 0 .55-.2 1-.45 1-.32 0-.32.16.02.56.36.43.34.61-.05.77-.4.16-.4.21-.02.24.28.02.5.2.5.42 0 .24-11.22.39-30.6.4-16.83.01-30.6-.13-30.6-.32 0-.18-.26-.34-.58-.34-.32 0-.56.1-.55.24.18 1.67-.1 2.03-1.62 2.03-1.22 0-1.6.17-1.77.8-.11.44-.5.8-.84.8-.37 0-.64.33-.64.8 0 .53-.27.8-.8.8s-.8.27-.8.8c0 .6-.27.8-1.02.8-.57 0-.92-.17-.8-.37.13-.2.02-.5-.23-.66-.34-.2-.39.03-.18.84.24.97.2 1.06-.3.64-.47-.38-.66-.38-.9 0-.18.29-.13.37.14.2a.5.5 0 0 1 .69.15c.14.23.44.3.66.16.25-.15.36.2.28.9-.15 1.2-1.36 1.9-2.2 1.26-.28-.22-.57-.2-.73.06-.14.23.01.42.34.42.86 0 1.26.82.6 1.24-.3.2-.35.35-.11.35s.45.56.47 1.24c.03.92-.11 1.18-.54 1.02-.38-.15-.57.04-.57.56 0 .44-.14.79-.3.79-.16 0-.21 16.52-.1 36.7.13 24.22.06 36.81-.2 37.03-.26.22-.22.4.1.53.64.26.65 2.23.02 2.86-.37.37-.37.48 0 .48.59 0 .63 1.38.07 2.43-.29.53-.29.77 0 .77.59 0 .51 1.9-.09 2.1-.28.1-.73-.12-1.02-.47-.44-.53-.46-.49-.08.28.24.5.6.82.78.7.18-.11.45.08.58.43.38.98.28 2.16-.17 2.16-.29 0-.29.24 0 .77.56 1.06.52 2.31-.09 2.6-.4.18-.4.28 0 .46.6.28.69 3.77.1 3.77a.4.4 0 0 1-.4-.4.4.4 0 0 0-.39-.4c-.21 0-.28.27-.15.6.12.33.04.6-.19.6s-.48-.31-.57-.7c-.09-.39-.18.06-.2 1-.04 1.23.1 1.7.53 1.7.31 0 .57-.18.57-.4a.4.4 0 0 0-.4-.4c-.22 0-.4-.2-.4-.42 0-.24.18-.32.4-.18.22.14.4.04.4-.2 0-.28.24-.22.6.14.7.71.86 5.46.18 5.46-.24 0-.32-.17-.2-.38.13-.2-.1-.35-.53-.31-.62.04-.7.22-.44.92.2.54.16 1.04-.12 1.32-.33.33-.22.45.45.45.5 0 .8-.18.66-.4-.14-.22-.06-.4.18-.4.92 0 .55 46.27-.38 46.52-.8.2-.8.5-.7 25.14l.1 24.94.1-24.9c.09-21.11.2-24.9.67-24.9.31 0 .85-.11 1.2-.24.58-.23.64 3.35.62 40-.01 31.4-.12 40.24-.5 40.25-.34 0-.36.1-.05.3.58.39.58 6.6 0 6.98-.3.2-.27.3.09.3.63.01.52 2.44-.12 2.9-.26.19-.22.3.1.3.4 0 .5 3.76.49 18.51-.02 10.18-.02 18.81-.01 19.2 0 .43.32.7.81.7 1.27 0 1.18 3.82-.1 4.25-.5.17-1.06.26-1.27.2-.2-.05-.12.2.19.57.36.44.6.5.7.2.12-.33.3-.33.68-.02.37.3.6.31.79.02.14-.23.52-.42.83-.42.71 0 .77 1.46.08 1.73-.27.1.04.17.69.13.67-.03 1.2.14 1.2.4.02.78.49 1.02 1.98 1.02.96 0 1.43.19 1.43.56 0 .62.19.66 2.9.57 1.68-.06 1.9.03 1.9.76v.83l79.7-.1c76.77-.1 79.7-.13 79.58-.83-.11-.63-.01-.66.75-.26.59.32.78.33.6.03-.16-.25 0-.44.37-.44.36 0 .53-.18.4-.4-.14-.22.03-.51.38-.65.34-.13.62-.5.62-.84 0-.37.23-.5.62-.36.34.13.52.08.4-.12-.13-.2-.06-.42.15-.5.2-.07.43-.4.5-.73.07-.33.49-.7.93-.82.44-.12.82-.43.85-.7.1-1 .17-1.07.51-.53.28.44.41.36.63-.33.18-.55.5-.8.87-.65.33.12.47.05.34-.18-.33-.52.87-1.71 1.4-1.4.22.15.29-.01.15-.37-.13-.34-.04-.64.2-.67.25-.03.63-.1.85-.15.22-.06.52-.12.68-.15.15-.03-.08-.33-.5-.67-.77-.6-.77-.61.02-.49.49.08.8.43.8.92 0 .43.16 1.06.36 1.39.3.49.26.5-.18.1-.74-.69-1.08-.63-1.57.28-.3.55-.28.85.05 1.06.3.19.35.1.14-.25-.24-.38-.15-.46.33-.27.37.14.67.08.67-.13 0-.22.13-.37.3-.34.96.15 1.48-.07.96-.4-.42-.27-.34-.49.39-1 .51-.36.69-.65.39-.65-.45 0-.44-.11.01-.66.5-.6.47-.63-.33-.2-.57.3-.96.32-1.12.06-.14-.22.07-.4.45-.4.63 0 .63-.06-.07-.59-.64-.48-.67-.59-.14-.6.67-.01 1.7.98 2.08 1.99.17.46.22.44.25-.12.02-.44.21-.62.5-.44.26.17.35.1.19-.14-.15-.24-.13-.5.04-.6.16-.1.07-.11-.21-.04-.29.07-.62-.14-.75-.46-.12-.33-.35-.52-.5-.43-.15.1-.27-.18-.27-.6s.23-.77.52-.77c.28 0 .51-.36.51-.8 0-.53.27-.8.8-.8s.8-.27.8-.8.27-.8.8-.8c.46 0 .8-.27.8-.63 0-.46.33-.59 1.3-.5.95.1 1.29.32 1.25.83-.04.4.12.58.36.43.27-.16.33 0 .16.43-.16.42-.1.58.15.43.23-.14.3-.58.18-.98-.13-.42.07-1.03.49-1.44.66-.68.67-.7.01-.46-.4.15-.7.08-.7-.16 0-.23.36-.52.8-.63.47-.13.81-.57.83-1.07.02-.47.12-.63.23-.36.12.3.77-.12 1.7-1.1.83-.87 1.66-1.45 1.84-1.29.18.17.21-.01.08-.4-.17-.46-.06-.7.33-.7.33 0 .59-.26.59-.57 0-.32.36-.69.8-.83.44-.14.8-.43.8-.65 0-.22.18-.29.4-.15.22.14.29-.02.15-.38-.15-.4 0-.62.4-.62.36 0 .65-.3.65-.68 0-.59.07-.57.58.1.56.75.57.75.35-.12-.12-.5-.04-.9.19-.9.22 0 .3-.39.18-.86-.2-.73-.1-.83.64-.64.7.18.86.05.86-.71 0-.66.26-.97.9-1.06.6-.09.86-.36.78-.83-.08-.48.15-.7.7-.7.45 0 .82.2.82.42 0 .24-.22.31-.5.17-.27-.13-.21-.01.13.28.35.3.55.79.45 1.1-.17.49-.1.49.42 0 .37-.35.45-.67.21-.82-.25-.16-.24-.35.05-.52.24-.15.44-.46.44-.68 0-.22-.18-.29-.4-.15-.22.14-.29-.02-.15-.38.13-.34.47-.62.75-.62.33 0 .45-.3.31-.82-.12-.45-.05-.77.14-.72.97.27 2.19-.53 1.7-1.12-.26-.32-.32-.55-.12-.51.93.17 1.37-.1 1.37-.83 0-.53.27-.8.8-.8s.8-.27.8-.8.27-.8.8-.8c.55 0 .8-.27.8-.84 0-.73.2-.82 1.4-.68 1.34.15 1.64-.13 1.45-1.38-.03-.17.13-.3.35-.3.22 0 .4.23.41.5.01.28.27.05.57-.5.3-.54.47-1.13.36-1.3-.1-.16 0-.3.24-.3.23 0 .42.21.42.48 0 .26.25.13.56-.29.3-.42.45-1.02.33-1.34-.17-.42-.04-.52.43-.33.72.27 1.67-.97 1.17-1.53-.16-.18-.08-.2.17-.05.63.35 1.8-.12 1.5-.6-.13-.22.13-.5.59-.61a1.7 1.7 0 0 0 1.07-1c.2-.62.48-.73 1.41-.52.76.16 1.17.1 1.17-.2 0-.25.18-.35.4-.21.22.14.4.04.4-.22s.27-.36.6-.24c.33.13.6.06.6-.16s-.7-.3-1.69-.18c-1.27.16-1.57.1-1.22-.25.25-.25 1.18-.48 2.07-.51.9-.03 1.85-.3 2.13-.58.41-.42.4-.5-.09-.39-.36.08-.55-.1-.47-.47.08-.33-.01-.45-.2-.27-.18.19-.33.53-.33.77s-.2.5-.44.58c-.33.11-.33-.22-.02-1.24.24-.76.53-1.37.65-1.36.86.07 1.21-.2 1.21-.9 0-.46.17-.73.37-.6.48.3 1.7-.94 1.4-1.42-.12-.21 0-.33.3-.27.28.06.57-.3.65-.79.09-.57.41-.9.9-.9.51 0 .78-.28.78-.8 0-.53.27-.8.8-.8s.8-.27.8-.8.27-.8.8-.8.8-.27.8-.8.27-.8.8-.8c.44 0 .8-.27.8-.6 0-.43.44-.6 1.6-.6 1.33 0 1.6-.13 1.6-.8 0-.44.2-.8.42-.8.24 0 .3.23.13.5-.2.34-.09.32.37-.05.38-.3.68-.9.68-1.33 0-.6.25-.76 1.1-.7.6.03 1.32.05 1.6.02.4-.03.52-22 .6-108.14l.1-108.1.2 108.2.2 108.2.1-107.8c.09-103.76.04-109.86-.75-109.37-.19.12-.35 0-.35-.27s-.12-.38-.26-.24c-.14.15-.1.49.1.77.21.3.28 45.38.16 108.31l-.2 107.8V200.3c0-88.65-.1-107.9-.52-107.9-.3 0-.42-.18-.28-.4.14-.23-.2-.4-.78-.4-1.14 0-1.36-1.85-.66-5.5.2-.97.18-1.81-.02-1.94-.2-.12-.23-.43-.07-.69.16-.26-.06-.2-.47.13s-.63.4-.48.15c.15-.25 0-.69-.35-.97-.5-.42-.6-.42-.5.04.08.33-.25.62-.77.7-.69.1-.9-.06-.9-.7 0-.7-.25-.82-1.6-.82-1.27 0-1.6-.15-1.6-.71 0-.43-.49-.9-1.2-1.17-.66-.25-1.1-.29-.98-.09.13.2-.04.37-.37.37s-.65-.36-.72-.8c-.13-.8-.39-.8-62.43-.81-58.74 0-62.3-.05-62.3-.7.01-.6.07-.6.4-.09.23.36.39.41.4.12 0-.64-.84-1.13-1.7-.98-.57.09-.7-.14-.62-1.11.05-.68.24-1.23.43-1.23s.2-.21.05-.47c-.2-.31-.08-.38.36-.22.36.14.76.08.9-.14.13-.21.1-.35-.09-.3-.18.06-.7-.1-1.15-.36-.55-.3-1.02-.32-1.4-.06-.5.33-.5.37.03.27.34-.07.6.05.6.26 0 .21-.33.4-.71.44-.38.02-.62-.04-.51-.14.41-.41-.63-1.64-1.21-1.42-.68.26-.66-.66.02-1.15.24-.18.18-.3-.15-.3-.46 0-.46-.12-.02-.65.65-.78.82-1.68.37-1.96-.18-.11-.28.11-.22.5.14.84-.87 2.1-1.69 2.1-.44 0-.4-.17.19-.7.41-.39.5-.53.2-.32-.4.27-.67.18-.93-.28-.2-.37-.64-.57-.96-.44-.4.16-.59-.04-.59-.62 0-.57-.25-.84-.8-.84-.53 0-.8-.27-.8-.8 0-.44-.27-.8-.6-.8-.45 0-.57-.39-.47-1.6.11-1.44.03-1.6-.8-1.6-.66 0-.93-.23-.93-.8 0-.54-.27-.8-.83-.8-.63 0-.8-.22-.71-.9.06-.5-.02-1.11-.18-1.37s-.11-.59.1-.72c.64-.4-.4-1.73-1.19-1.52-.44.11-.76-.12-.9-.66-.12-.45-.42-.83-.68-.83-.27 0-.1.51.39 1.2.47.66.8 1.21.73 1.23-1.18.28-1.45.23-1.26-.27.15-.4-.1-.56-.81-.56-.93 0-1.03-.15-.98-1.4.03-.98.18-1.28.5-1.02.3.26.45.13.45-.4 0-.68-.2-.75-1.37-.53-1.3.25-1.36.2-1.19-.73.17-.85.07-.96-.74-.8-.68.13-.93-.01-.93-.5 0-.96-1.06-1.98-1.37-1.32-.13.28-.16.1-.07-.4.16-.85-.33-1.15-1.51-.93-.2.03-.27-.38-.16-.92.14-.72-.01-1.04-.55-1.18-.4-.1-.64-.03-.52.17.13.2.04.36-.2.36-.23 0-.42-.36-.42-.8 0-.46-.27-.8-.63-.8-.46 0-.59-.33-.5-1.3.1-1.03.3-1.3.96-1.26 1.14.06 1.06-.93-.09-1.15-.5-.1-.82-.02-.7.17.11.19-.07.34-.42.34-.34 0-.62-.22-.63-.5 0-.33-.13-.3-.39.1-.37.57-.63-.18-.45-1.3.07-.41-.87-.2-1.28.3-.19.22-.25-.08-.16-.7.16-.99.08-1.07-.87-.9-.57.12-.82.1-.54-.03.64-.3-.35-1.37-1.27-1.37-.35 0-.6-.13-.58-.3.14-.9-.14-1.3-.9-1.3-.69 0-.8-.17-.6-.97.15-.57.06-1.1-.21-1.27-.29-.18-.35-.1-.18.18.18.29-.02.46-.54.46-.69 0-.82-.25-.82-1.55 0-1.27-.16-1.6-.9-1.8-.7-.2-.78-.33-.35-.6.44-.29.38-.42-.3-.63-.47-.15-.85-.49-.86-.75 0-.28-.17-.23-.43.13-.34.48-.4.42-.23-.3.18-.83-.22-1.1-1.38-.96-.14.01-.36-.5-.5-1.16-.12-.65-.42-1.18-.66-1.18-.24 0-.33.18-.19.4.14.22.06.4-.18.4-.23 0-.42-.36-.42-.8 0-.47-.27-.8-.64-.8-.5 0-.61-.33-.5-1.57.09-.86.03-1.48-.13-1.39-.15.1-.4-.03-.55-.28-.2-.31-.38-.29-.62.1-.25.4-.35.3-.35-.36 0-.66-.25-.9-.91-.93-.5-.02-.68-.12-.4-.23.4-.16.4-.3 0-.67-1.08-1-2.05-1.66-1.75-1.17m6.89 6.26c.24.63 1.76 1.16 1.76.62 0-.33-1.28-1.18-1.76-1.18-.12 0-.12.25 0 .56m4.03 2.8c-.12.31.02.88.3 1.26.44.62.49.55.32-.56-.2-1.4-.3-1.52-.62-.7m-26.8 2.86c.35.93-.04 1.05-.59.16-.3-.5-.33-.78-.07-.78.23 0 .52.28.65.62m-4.26.93c0 .2.35.45.77.56.54.14.7.03.56-.35-.23-.61-1.33-.78-1.33-.2m-.67.84c.21.93.2.95-.33.25-.53-.71-.56-.71-.5.1.04.47.3.85.6.85.76 0 1.1-1.17.5-1.73-.4-.37-.46-.27-.27.53m35.7.95c.1 1.9 1.97 3.85 1.97 2.04 0-.2-.31-.32-.7-.26-.8.14-.96-.56-.2-.87.38-.15.38-.2.01-.23-.27-.02-.39-.28-.27-.58a.58.58 0 0 0-.33-.75c-.35-.14-.52.09-.49.65m-38.52.54c-.28.1-.5.44-.5.77 0 .34-.2.47-.46.3-.29-.17-.36-.1-.18.18.43.7.96.56 1.46-.37s.42-1.15-.32-.88m47.93 10.45c-.5.93.26 2.08 1.26 1.92 1.17-.18 1.2-.55.05-.84-.86-.22-.97-.35-.52-.64.5-.32.5-.37-.02-.38-.53-.01-.53-.05 0-.4.38-.24.42-.39.11-.4-.26 0-.66.34-.88.74m-41.1 6.59c0 .97 1 1.14 1.48.26.29-.54.29-.79 0-.79-.22 0-.41.3-.41.68 0 .6-.05.6-.53-.06-.45-.6-.54-.62-.54-.09m52.45 7.1c-.13.21-.45.26-.7.1-.27-.14-.17.09.2.52.66.74.65.79-.03.84-.78.05-.99-.98-.35-1.79.44-.55 1.24-.25.88.33m-38.14 4.77c.64 0 .77.25.7 1.33-.08 1.17-.22 1.33-1.12 1.24-1.4-.13-1.37-.1-.86-.72.36-.43.31-.61-.2-.8-.53-.21-.56-.37-.15-.86.42-.51.39-.57-.25-.37-.7.23-.7.2.04-.4.71-.59.81-.6.93-.04.07.34.48.62.91.62m44.15 1.74c-.63.7-.23 1.86.64 1.86.42 0 .77.2.77.42 0 .24-.17.32-.38.2-.2-.13-.35.1-.32.5.03.41.28.75.54.75.27 0 .38-.27.25-.6-.14-.37-.06-.5.2-.33.56.34.4-.8-.18-1.4a1.2 1.2 0 0 1-.24-1.09c.17-.52.13-.54-.2-.1-.33.48-.41.47-.53-.05-.1-.46-.25-.5-.55-.16m-38.3 8.37c-.17.45-.5.59-.96.4-.56-.2-.52-.07.18.69.5.52.89 1.1.89 1.3 0 .2.2.22.46.06.28-.17.35-.1.2.15-.15.24-.09.55.13.69.65.4.47 1.33-.29 1.51-.38.1-.06.16.72.13 1.44-.04 2.1-1.07 1.1-1.7-.28-.17-.33-.08-.13.25.22.34.14.45-.23.33-.68-.23-.75-2.16-.07-2.03.3.06.38-.15.22-.58-.16-.41-.32-.49-.42-.2-.18.56-1.03-.13-1.35-1.1-.16-.46-.24-.44-.45.1m48.22 2.39.49 1.1 59.8-.1 59.8-.1-59.54-.1-59.53-.1-.76-.9-.75-.9.49 1.1m-92.31 1c24.92.27 44.2.27 44.2 0 0-.17-12.1-.26-26.9-.2-14.8.04-22.58.13-17.3.2m221.13 4.03c-.35.58-.3.72.32.76.8.06.92-.2.43-.97-.22-.36-.42-.3-.75.21m3.75 4.9c.07.92-.08 1.17-.7 1.17-.43 0-.78-.2-.78-.42 0-.24.2-.3.46-.14.29.18.36.1.17-.18-.72-1.17-.68-2.5.06-2.03.4.24.75.96.8 1.6M72.52 93.98c-.29 4.43-.04 71.8.27 71.72.22-.05.4.08.4.3 0 .22.17.4.39.4.21 0 .3-.22.2-.5-.4-1.05-.4-72.3.01-72.46.22-.09.03-.14-.41-.12-.45.02-.84.32-.86.66m-.74 35.62c0 19.47.05 27.44.11 17.7.06-9.74.06-25.67 0-35.4-.06-9.73-.1-1.77-.1 17.7M168 100c0 .52.27.8.77.8s.82.32.9.9c.1.63.36.86.88.77.61-.1.72.06.56.87-.14.73 0 1.05.55 1.2.4.1.64.02.52-.18-.13-.2-.04-.36.2-.36.23 0 .42.36.42.8 0 .54.27.8.83.8.66 0 .81.23.76 1.1-.12 1.8-.02 2.1.66 2.1.49 0 .6.29.46 1.21-.12.84-.05 1.09.24.8.62-.62 1.45-.5 1.45.23 0 .79 1.56 2.13 2.5 2.15.39 0 .68.14.65.31-.14.89.14 1.3.86 1.3.93 0 1 2.85.07 3.04-.27.05-.31 0-.09-.1.66-.33.47-.77-.34-.77-.52 0-.74.27-.7.84.05.81 1.08 1.1 1.7.47.41-.41 1.75-.34 1.75.09 0 .74-.5 1.62-.8 1.43-.18-.11-.23.16-.12.6.23.86.92.7.92-.22 0-.41.45-.56 1.6-.51 1.43.05 1.58.15 1.42.99-.09.5.03 1.05.27 1.2.26.16.32.08.15-.2-.16-.25-.1-.46.11-.46.22 0 .52.2.67.44.2.3.4.3.7 0 .7-.7 1.48-.5 1.48.36 0 .44.18.8.4.8.22 0 .4.2.4.42 0 .24-.18.32-.4.18-.22-.14-.4-.06-.4.18 0 .66.71.5 1.2-.28.39-.6.42-.55.24.3-.2.97-.14 1.01 1.38.87 1.33-.13 1.58-.04 1.58.6 0 .4.36.96.8 1.23.78.5.95 2.04.28 2.54-.17.13-.05.45.27.72.45.37.65.37.88 0 .19-.3.13-.38-.17-.2-.25.16-.46.1-.46-.14 0-.23.18-.42.4-.42.22 0 .4-.2.4-.42 0-.24-.2-.3-.46-.14-.3.18-.35.1-.17-.19.16-.26.9-.43 1.64-.38 1 .07 1.25.22.96.57-.28.34-.03.6.92.93 1 .35 1.18.54.74.81-.46.29-.48.48-.09.95.4.47.39.63-.02.78-.4.14-.4.3-.06.68.35.38.52.22.72-.69.22-1.01.45-1.18 1.68-1.22 1.04-.04 1.36.09 1.21.48-.34.88.53 1.39 1.94 1.16 1.16-.19 1.34-.1 1.47.73.07.52.37.9.65.84.29-.06.46.2.39.6-.1.57.21.73 1.58.83 1.37.1 1.7.28 1.7.9 0 .7.43.97 1.32.82.17-.03.14.28-.08.69-.28.52-.26.75.08.78 1.8.16 2.28.32 2.28.78 0 .28-.37.51-.82.51-.52 0-.72-.17-.54-.46.17-.28.1-.35-.15-.2-.24.15-.41.62-.38 1.05.03.43.14.7.24.6.1-.1.42.02.72.27.44.36.5.3.26-.3-.25-.68-.2-.7.4-.2.38.3.8.44.95.3.14-.14.04-.26-.21-.26-.26 0-.47-.18-.47-.4 0-.51.47-.5 1.86.02.9.34 1 .5.53.8-.4.25-.43.37-.09.37.28 0 .5.35.5.78 0 .42-.22.85-.5.97-.28.1.04.2.7.22.83.02 1.03-.08.65-.32-.3-.2-.43-.55-.28-.8.38-.6 1.83-.56 1.84.06 0 .33.13.3.39-.1.31-.49.39-.43.4.3 0 .84.42 1.11 1.4.91.22-.04.27.05.11.2-.15.17-.07.68.19 1.14.26.47.43.98.38 1.15-.04.17.12.3.36.3.25 0 .34-.27.22-.6-.17-.43.04-.6.75-.6.61 0 .99.23.99.6 0 .33.36.6.8.6.44 0 .78.13.75.3-.18 1.16.1 1.61.9 1.4.62-.16.8-.07.66.34-.1.3-.53.5-.95.42-.42-.07-.65-.02-.51.11.13.14.58.32 1 .4l1.33.3c.73.17 1.07-1.27.39-1.69-.28-.17-.56-.98-.63-1.78-.09-1.18 0-1.39.41-1.04.29.24.64.32.78.18.54-.54-.2-.87-1.58-.7-1.3.16-1.43.1-1.24-.63.2-.73-.17-.98-1.32-.89-.1.01-.22-.5-.25-1.15-.03-.7.12-1.06.37-.9.24.15.3.06.13-.2-.16-.26-.73-.47-1.26-.47-.54 0-.96-.13-.93-.3.25-1.62-.12-2.9-.85-2.9-.44 0-.8-.2-.8-.42 0-.24.2-.3.44-.16.32.2.32.05.01-.52a2.82 2.82 0 0 1-.27-1.59c.12-.64-.03-.75-.81-.6-1.22.23-1.49-3.24-.32-4.1.5-.37.53-.49.1-.52-2.1-.16-2.23-.24-2.28-1.63-.03-.85.2-1.57.58-1.85.58-.42.57-.53-.05-1.16-.38-.38-.8-.58-.94-.44-.14.14.08.44.5.67.56.32.62.49.22.73-.74.46-1.98-1.27-1.98-2.77 0-.86.2-1.24.62-1.24.4 0 .52.19.33.5-.2.34-.09.32.37-.05.88-.7.87-1.18-.02-1.1-.39.03-.66-.17-.6-.44.05-.3-.16-.38-.57-.23-.48.19-.57.11-.33-.27.22-.36.17-.44-.16-.24-.37.23-.37.43-.01.87.26.3.37.56.25.56s-.5.1-.85.24c-.51.2-.63-.06-.63-1.4 0-1.4-.13-1.64-.83-1.64-.66 0-.81-.23-.76-1.1.12-1.84.02-2.1-.83-2.1-.71 0-.81-.21-.7-1.5.08-.99.3-1.46.65-1.39.3.06.41-.08.27-.3-.14-.24-.42-.32-.63-.2-.2.13-.37-.03-.37-.36 0-.33.18-.71.4-.85.22-.14.4-.06.4.16 0 .77 1.5 1.3 1.75.61.14-.35.07-.5-.16-.37-.21.14-.6.12-.86-.04-.33-.2-.24-.4.3-.61.44-.19-.03-.23-1.13-.1-1.84.2-1.9.18-1.9-.84 0-.6.17-.95.4-.81.22.14.29-.02.15-.38-.13-.34-.67-.62-1.2-.62-1.21 0-1.24-.94-.05-1.83.8-.6.81-.64.1-.42l-.8.25.8-.65c.8-.65.8-.65-.04-.45-.7.16-.85 0-.87-.95-.02-.63.14-1.15.36-1.15.22 0 .27.2.11.46-.17.28-.1.36.15.2.24-.15 19.77-.27 43.41-.26 40.55 0 43-.03 43.5-.7.46-.6.46-.63-.02-.2-.77.69-84.8.74-84.8.05 0-.31-.18-.3-.6.05-.48.4-.64.36-.85-.19-.2-.53-.33-.56-.58-.16-.18.3-.45.4-.6.25-.16-.16-.03-.59.27-.97.37-.45.4-.58.06-.38-.31.19-.5.07-.5-.33 0-.56 4.53-.62 45.2-.62 44.93 0 45.2 0 45.2.8 0 .72.41.99 1.3.85.16-.03.3 44.97.3 100v100.04l-1.1-.23c-4.72-1.02-48.9-.11-48.9 1 0 .48-.29.74-.82.74-.56 0-.73-.16-.53-.5.2-.34.09-.33-.37.05-.37.3-1.13.46-1.69.35-.55-.1-1.1-.04-1.22.15-.12.2-.61.15-1.1-.1-.8-.43-.8-.38.13.63.55.6.82 1.05.6 1-.97-.19-1.4.08-1.4.86 0 .74-.2.83-1.6.7-1.4-.14-1.6-.06-1.6.66 0 .55-.28.85-.8.9-.47.02-.7-.13-.56-.36.13-.22-.29-.13-.94.21-1.3.67-2.05 2.23-1 2.08.32-.05.76-.4.97-.76.2-.37.56-.67.8-.67.26 0 .2.27-.12.68-.37.46-.39.58-.05.37.34-.2.5-.03.5.53 0 .45-.2.82-.42.82-.24 0-.32-.18-.18-.4.14-.22.07-.4-.15-.4s-.51.36-.65.8c-.15.47-.46.7-.73.55-.31-.18-.3-.09.03.27.9.96.63 2.45-.4 2.3-.5-.06-1.03-.3-1.18-.5-.15-.22-.42-.25-.6-.08-.17.18 0 .5.38.71.7.4 1.06 3.95.4 3.95-.16 0-.18 2.38-.04 5.3.14 2.92.28 12.55.3 21.4l.04 16.1H97.6l.06-64.5c.03-35.48.17-83.31.32-106.3l.26-41.8.09 36.8c.04 20.24.22 37.02.39 37.28.98 1.54 1.08-1.92 1.08-37.16 0-20.4-.13-36.95-.3-36.78-.16.16-.34 16.85-.4 37.08L99 221.4l-.1-36.91c-.09-32.38-.17-36.94-.7-37.15-.52-.2-.6-3.16-.6-23.32 0-20.25.07-23.09.6-23.09.33 0 .6.15.6.34 0 .57.7.36.95-.3.14-.35.07-.5-.16-.37-.21.14-.39-.12-.39-.58v-.82h34.4c34.13 0 34.4 0 34.4.8m-50.67-.1c9.2.06 24.14.06 33.2 0 9.06-.06 1.53-.1-16.73-.1s-25.67.04-16.47.1m116.17 0c12.16.06 32.05.06 44.2 0 12.16-.06 2.21-.1-22.1-.1-24.31 0-34.25.04-22.1.1m-131.58 1.74c.26.35.4.7.31.8-.09.09 14.64.16 32.74.16 31.65 0 32.92-.03 33.66-.75.76-.74.76-.75-.1-.3-1.33.68-65.76.64-66.53-.05-.47-.42-.48-.4-.08.14m67.28 3.07c0 .18.5.54 1.1.8 1.02.43 1.03.44.1.25l-1-.21 1 .82c.95.77 1.6 1.04 1.6.66 0-.6-.87-2.3-1.06-2.1-.14.13-.58.06-1-.16-.4-.22-.74-.25-.74-.06m8.3 8.16c.36.35.27.64-.38 1.2l-.84.73h.86c.47 0 .86.2.86.42 0 .24.17.32.37.2.7-.44-.05-3.02-.87-3.02-.34 0-.34.12 0 .47m38.66 2.69c.53.59.57.8.16.96-.28.1-.12.18.37.16l.9-.05-.87-.91c-1.03-1.1-1.54-1.25-.56-.16m-31.36 4.84c0 .22-.2.35-.45.3-.25-.06-.53.11-.63.38-.1.27.15.45.57.42.61-.05 1.27-1.5.69-1.5-.1 0-.18.18-.18.4m9 6.8c-.14.22.02.4.35.4.33 0 .71-.18.85-.4.14-.22-.02-.4-.35-.4-.33 0-.71.18-.85.4m3.77.9c-.4 1.33.44 2.45 1.08 1.42.16-.27.1-.33-.19-.16-.41.26-.64-.22-.5-1.06.03-.27-.31-.45-.4-.2m26.94 6.48c-.9.49-.9.5-.12 1.2.44.4.75.9.7 1.11-.04.22.23.46.6.52.62.1.63.03.11-.77a2.8 2.8 0 0 1-.4-1.76c.09-.48.13-.86.09-.84l-.98.54m-13.88 3.16c-.41.3-.61.75-.46 1 .47.75.93.53 1.14-.54.22-1.17.26-1.15-.69-.46m16.99 3.48c0 .24-.18.32-.4.18-.23-.14-.29.03-.14.4.16.43.38.52.64.26.22-.22.7-.29 1.05-.15.58.22.58.18-.02-.43-.77-.78-1.13-.86-1.13-.26m-5.72 4.46c.79.88.74.88.8-.05.05-.53-.17-.76-.7-.72-.7.05-.7.11-.1.77m8.35-.1c-.68.25-.7.31-.11.53.36.14.77.07.9-.15.36-.58.1-.7-.8-.38m-.05 1.43c.43.32.87.48.99.36.25-.25-.77-.96-1.36-.95-.22 0-.05.27.37.59m1.62.96c.26.43.17.5-.38.29-.58-.22-.63-.17-.27.27.25.3.32.69.16.86-.17.18.2 0 .8-.38.6-.38 1.1-.8 1.1-.92s-.12-.1-.26.04c-.15.15-.54.04-.88-.23-.5-.41-.55-.4-.27.07m-.34 2.34c.25.16.55.65.66 1.09.17.71.2.7.24-.12.03-.51.23-.82.45-.68.22.14.4.06.4-.18 0-.23-.5-.42-1.1-.41-.61 0-.9.13-.65.3M72.8 167.13c-.7.32-.99 1.27-.38 1.27.24 0 .33.15.22.33-.11.19.01.34.28.34.26 0 .48-.51.48-1.14v-1.1c0 .01-.27.15-.6.3m-.73 4.07c-.02 1.53.4 2.06.93 1.2.14-.22.01-.4-.28-.4-.36-.01-.38-.1-.07-.3.9-.6 1.07-2.1.22-2.1-.64 0-.78.29-.8 1.6m.47 2.1c-.48.76-.52 1.5-.08 1.5.21 0 .26.22.1.5-.17.29-.14.36.08.17.2-.19.37-.46.37-.6.01-.15.24-.68.52-1.17.56-1-.38-1.38-1-.4m-.44 7c.08 1.18.55 1.7 1.51 1.67.4-.02.33-.14-.2-.37-.44-.19-.6-.36-.36-.37.65-.04.17-2.03-.48-2.03-.35 0-.52.4-.47 1.1m.45 3.23c0 .63.2 1.14.45 1.14.27 0 .38-.47.29-1.14-.1-.62-.3-1.13-.45-1.13-.16 0-.28.51-.28 1.13m88.37 6.24c-.38.44-.33.59.25.74.55.14.68 0 .53-.56-.23-.88-.17-.86-.78-.18m16.71-.05c-.02.44-.22.63-.53.47-.28-.13-.23-.01.1.28.33.3.92.86 1.3 1.26.68.7.7.7.7-.17 0-.49-.12-.77-.28-.62-.15.16-.5-.22-.76-.83-.35-.8-.5-.9-.53-.39m19.77 1.08c-.66.44-1.06.82-.9.85l.72.1c.22.03.56.29.74.58.18.3.49.5.69.43.19-.06.41.21.48.6.1.47-.08.65-.55.56-.45-.08-.74.19-.83.78-.08.5.03.9.25.9s.4-.2.4-.45c0-.3.24-.26.68.1.58.47.63.47.32-.05-.3-.5-.25-.52.28-.08.53.42.68.42.84 0 .1-.29.18-.12.15.38-.02.5-.2.9-.38.9-.2 0-.08.27.25.6.33.33.9.6 1.26.6.47 0 .64.32.59 1.1-.2 2.86 0 3.7.81 3.7.59 0 .8.27.8 1 0 .55-.2 1-.43 1-.23 0-.16.27.17.6.33.33.89.6 1.23.6.45 0 .63.4.63 1.38 0 1.37-.55 2.2-.94 1.41-.1-.22-.15-.18-.08.1.07.28.34.46.62.4.31-.08.43.16.3.63-.12.47.1.94.6 1.25.46.28.67.31.52.06-.15-.24-.07-.43.16-.43.25 0 .4.78.38 1.9-.07 2.74-.03 2.9.68 2.63.5-.2.62 0 .55.91-.15 2.23-.04 2.5.91 2.3.84-.16.85-.14.15.34-.4.29-1.04.79-1.4 1.12-.37.33-.5.48-.31.33.2-.15.63-.16.97-.03.4.16.52.07.33-.23-.16-.27-.06-.47.25-.47.88 0 .81 2.05-.09 2.69-.93.65-1.07 1.39-.2 1.06.33-.13.48-.44.34-.7-.16-.27-.05-.25.28.05.45.41.4.6-.24 1.12-.73.59-.72.6.22.12 1.8-.9 2.07-.8 1.93.8-.11 1.26 0 1.48.77 1.59.8.11.9.35.9 2.3 0 1.9.1 2.17.8 2.17.67 0 .8.27.8 1.6s.13 1.6.8 1.6c.66 0 .8.27.8 1.55 0 1.4-.08 1.52-.95 1.36-1.2-.23-1.75.54-.63.9.67.2.73.37.34.84-.38.46-.38.69 0 1.07.38.38.42.3.19-.32-.27-.72-.23-.74.4-.23.63.52.69.48.53-.4-.09-.53-.09-.75 0-.47.1.28.53.5.95.5.66 0 .77.3.77 2.05 0 1.97-.04 2.04-1 1.85-.83-.16-.93-.1-.54.37.26.31.7.47 1 .36.67-.26 2.14 1.28 2.14 2.25 0 .46.3.72.83.72.69 0 .82.23.76 1.3-.16 2.9-.02 3.5.81 3.5.67 0 .8.27.8 1.6s.13 1.6.8 1.6c.7 0 .79.25.75 2.2-.05 2.15-.43 3.04-.95 2.2-.13-.22-.42-.4-.62-.4-.54 0-.47 1.1.08 1.44.29.18.35.1.18-.18-.16-.25-.1-.46.14-.46.23 0 .42.28.42.62 0 .35.18.51.4.38.23-.14.32-.4.2-.59-.1-.18 1.9-.35 4.48-.38 2.57-.03 4.6.03 4.49.13-.1.11-2.05.23-4.32.27-3.99.07-4.11.1-3.89.92.13.47.23.94.23 1.05.01.33 9.76-.02 10.2-.37.23-.18.75-.27 1.16-.2.56.08.64 0 .3-.34-.67-.67-.54-1.1.25-.85.61.2.6.15-.06-.4-.86-.7-1.51-.5-1.19.35.18.47.05.49-.81.09-.69-.32-.83-.52-.44-.6.64-.15.73-.45.61-2.18-.06-.87.1-1.1.76-1.1.7 0 .83-.25.83-1.6 0-1.33.13-1.6.8-1.6.46 0 .8-.27.8-.62s.18-.52.4-.38c.22.14.4.06.4-.18 0-.23-.18-.42-.4-.42-.22 0-.4-.72-.4-1.6 0-1.33.13-1.6.8-1.6.73 0 1.08-1.04.85-2.5-.03-.16.31-.3.75-.3s.75.13.7.3c-.06.16.08.3.3.3.2 0 .43-.33.5-.72.05-.4-.08-.62-.3-.48-.25.15-.4-.6-.4-1.98 0-1.95.1-2.22.8-2.22.62 0 .8-.27.8-1.2 0-.95.18-1.2.82-1.2.46 0 .72-.18.58-.4-.14-.22-.07-.4.14-.4a.6.6 0 0 1 .53.35c.07.19.49.2.93.02.75-.3.74-.32-.12-.34-.51-.02-.82-.2-.7-.4.13-.2.05-.49-.18-.63-.47-.29-.4-2.6.09-2.6.17 0 .31-.2.31-.42 0-.24-.18-.32-.4-.18-.22.14-.4.06-.4-.18 0-.23.2-.42.43-.42.23 0 .7-.27 1.03-.6.33-.33.4-.6.17-.6-.24 0-.43-.37-.43-.81 0-.77.06-.78 1.16-.21.9.47 1.25.5 1.55.1.39-.47-.03-2.28-.52-2.28-.13 0-.11.22.05.5.2.37.14.37-.28-.02-.47-.44-.47-.57.04-.9.4-.24.43-.37.1-.37-.29 0-.5-.52-.5-1.21 0-.66.2-1.2.42-1.2.24 0 .32.18.18.4-.3.48 1.24.31 1.69-.19.17-.19.1-.21-.18-.06-.35.2-.47-.24-.44-1.64.03-1.05.13-1.68.23-1.4.13.39.32.4.7.09.37-.3.6-.31.79-.02.39.63 1.28.5 1.28-.18 0-.33-.28-.56-.63-.5-.4.06-.64-.22-.68-.81-.05-.84 0-.86.63-.3.37.33.83.61 1.02.61.19 0 .04-.22-.33-.5-.47-.36-.55-.67-.28-1.1.21-.33.4-.4.4-.17 0 .24.25.44.56.44.3 0 .5-.29.42-.64l-.15-.89c-.02-.14-.3-.36-.63-.48-.32-.13-.55-.04-.5.2.06.24-.22.49-.6.55-.46.08-.7-.14-.7-.65 0-.5.28-.76.8-.76.84 0 .93-.32.8-2.9-.05-1.25.07-1.5.73-1.5.43 0 .9-.29 1.03-.64.15-.38.5-.55.86-.4.38.14.52.06.36-.2-.14-.22-.51-.32-.81-.2-.4.15-.53-.08-.47-.8.07-.86.25-1 1.12-.87.67.1 1.05-.03 1.05-.37 0-.29-.17-.52-.36-.52-.56 0-.22-2.1.47-3 .58-.73.57-.75-.08-.24-.6.46-.7.45-.7-.11 0-.41.34-.65.91-.65.82 0 .9-.16.76-1.6-.14-1.5-.1-1.6.79-1.45.52.09.88.39.82.67-.1.38.01.4.4.08.29-.24.64-.4.79-.37.14.04.38-.04.51-.18.14-.14-.16-.23-.66-.2-.82.05-.93-.15-1.02-1.85-.06-1.08.07-1.9.3-1.9.22 0 .4-.2.4-.42 0-.24-.18-.32-.4-.18-.22.14-.4.07-.4-.15s.4-.45.9-.52c.76-.1.88-.34.77-1.43-.12-1.21-.05-1.3 1.1-1.3.68 0 1.23-.2 1.23-.42 0-.24-.15-.34-.33-.22-.18.1-.55-.42-.82-1.18-.51-1.41-1.12-1.84-1.12-.8 0 .32.13.5.3.4.29-.17.77.74.77 1.47 0 .24-2.14.34-5.53.27l-5.52-.12.17.9c.14.7-.01.9-.67.9-.72 0-.85.24-.85 1.6 0 .88-.07 1.6-.15 1.6-.35 0-2.23-1.1-2.14-1.24.05-.1-.13.1-.41.41-.75.87-.6 1.63.3 1.63.7 0 .8.27.8 2.04 0 1.68-.11 2-.61 1.81a.63.63 0 0 0-.85.35c-.12.33-.43.48-.68.34-.28-.16-.26-.04.04.28.6.64.67 2.78.1 2.78-.22 0-.4.2-.4.42 0 .24.18.32.4.18.22-.14.4-.06.4.18 0 .23-.36.42-.8.42-.7 0-.8.27-.8 2.2 0 1.93-.1 2.2-.8 2.2-.67 0-.8.27-.8 1.6 0 .88-.14 1.58-.3 1.55-.92-.14-1.17.14-.99 1.1.16.83.08 1-.35.75-.45-.26-.46-.21-.06.22.84.9.64 2.78-.3 2.78-.46 0-.8.27-.8.62 0 .39-.2.52-.5.34-.4-.22-.4-.17 0 .26 1.1 1.18.62 3.46-.78 3.74-.98.2-1.16.36-.8.72.71.71.58 1.79-.22 1.8-.38 0-.81-.17-.95-.38-.14-.21-.16.92-.04 2.52.2 2.82.18 2.9-.65 2.68-.66-.17-.86-.05-.86.54 0 .75-.25.87-1.8.83-.67-.02-.68.02-.1.19.4.11.6.4.45.67-.18.31-.09.3.27-.03.86-.8 1.04-.6 1.11 1.1.06 1.35-.06 1.6-.73 1.6-.83 0-.93.26-.81 2.1.08 1.26-.62 1.45-1.47.4-.51-.64-.54-.62-.3.25.18.64.12.86-.18.68-.24-.15-.44-.09-.44.15 0 .23.2.42.43.42 1.2 0 .1 1.8-1.17 1.93-1.19.11-1.3.04-1.07-.7.16-.49.09-.83-.16-.83-.24 0-.43.33-.43.73 0 .4-.25.74-.55.74-.36 0-.55-.5-.56-1.44-.03-2.7-.07-2.83-.89-2.83-.44 0-.8-.17-.8-.38 0-.2.37-.3.81-.22.45.09.7-.01.58-.22a.96.96 0 0 0-.74-.38c-.34 0-.52-.63-.54-1.84-.01-1-.25-2.04-.52-2.3-.39-.35-.44-.34-.22.04.16.3.04.5-.3.5-.44 0-.58-.52-.57-2.13.02-2.1.04-2.13 1.16-2.07.63.04 1.14-.08 1.14-.26 0-.19-.2-.34-.44-.34s-.77-.4-1.18-.9c-.72-.88-.74-.88-.53-.05.18.69.04.85-.73.85-.71 0-.97-.24-1.03-.94-.05-.65.09-.87.48-.72.3.12.67.01.83-.24.18-.29.01-.4-.46-.33-.61.1-.75-.14-.78-1.47-.05-2.4-.1-2.6-.76-2.35-.33.13-.5.4-.37.6.12.2.4.26.6.13.2-.12.37-.06.37.15s-.29.5-.63.63c-.95.36-1.25.28-.57-.16.4-.26.43-.39.1-.4-.29 0-.5-.51-.5-1.2 0-.93-.18-1.2-.8-1.2-.67 0-.78-.25-.73-1.56.04-1.01.22-1.5.53-1.39.26.1.47-.08.47-.4 0-.31-.24-.48-.54-.37-.67.26-.7-.93-.03-1.24.28-.13-.09-.13-.8 0l-1.3.22v-1.83c0-1 .13-1.79.3-1.73.16.05.75-.24 1.3-.65.64-.48.74-.66.27-.5-.6.2-.67.1-.45-.6.18-.57.12-.76-.18-.58-.24.15-.44.1-.44-.13s-.34-.6-.75-.81c-.55-.3-.75-.28-.74.08.04 1.22-.14 1.89-.51 1.89-.98 0-.24-3.8.76-3.94.75-.1.84-.22.4-.49-.43-.27-.44-.36-.04-.36.3 0 .41-.2.27-.43-.18-.28-.46-.25-.87.09-1.28 1.06-2.6.88-2.51-.35.12-1.86.02-2.12-.81-2.12-1 0-1.18-2.68-.2-3.05.33-.13.5-.4.37-.6a.44.44 0 0 0-.6-.13c-.2.12-.37-.05-.37-.4a.61.61 0 0 0-.6-.62c-.94 0-.73-1.86.29-2.58.49-.34.7-.62.48-.62-.23 0-.62.2-.87.46-.35.35-.44.22-.4-.5.04-.53.3-1.2.59-1.49.64-.66.67-1.42.04-1.03-.3.2-.38.08-.23-.32.17-.45-.02-.62-.73-.62-1.2 0-1.21.2-.1 1.15l.85.75-.98-.08c-.74-.06-1-.33-1.06-1.1-.15-1.98-1.55-4.35-1.55-2.64 0 .32.13.5.3.4.29-.18.77.74.77 1.48 0 .38-10.18.41-10.9.04-.17-.09-.2-.33-.07-.55.15-.25.43-.23.77.05.39.32.6.31.83-.04.18-.3.13-.38-.14-.22-.73.45-.94-.43-.27-1.1.35-.35.45-.64.23-.64s-.67.37-.99.83c-.36.52-.68.67-.84.4-.15-.24-.08-.43.16-.43.23 0 .42-.18.42-.4 0-.59-.46-.49-1.8.4m-35.3.22c-.28.3-.5.83-.5 1.19 0 .37-.3.61-.7.57-2.42-.25-3.7.04-3.7.82 0 .44-.2.8-.42.8-.24 0-.32-.18-.18-.4.14-.22.06-.4-.18-.4-.23 0-.42.2-.42.45 0 .3-.5.37-1.47.22-1.11-.18-1.35-.13-1 .22.26.26.47.75.46 1.09 0 .43-.24.32-.77-.37-.42-.55-.9-.87-1.06-.7-.16.16-.08.29.17.29.26 0 .47.29.47.64 0 .49-.29.6-1.13.49-1.01-.15-1.11-.07-.94.81.18.92.1.97-1.17.72-.86-.16-1.16-.13-.8.1.45.29.35.57-.5 1.43-.6.58-.96 1.24-.83 1.46.14.22 0 .35-.29.28-.76-.16-2.74 1.67-2.74 2.54 0 .4-.2.73-.44.73-.25 0-.34-.27-.22-.6.13-.33.06-.6-.15-.6-.22 0-.39.26-.39.59 0 .38-.23.5-.67.33-.48-.19-.58-.1-.37.31.17.31.04.26-.27-.12s-.68-.59-.81-.46c-.3.3.7 1.35 1.3 1.35.24 0 .4.54.34 1.2-.05.66-.32 1.2-.6 1.2-.55 0-.66.4-.53 1.95.05.54-.09.84-.32.7-.66-.42-1.62.85-1.37 1.8.15.57.07.78-.2.6a.5.5 0 0 0-.7.15c-.14.23-.02.37.27.31.37-.08.57.47.65 1.79.11 1.75.05 1.9-.8 1.9-.85 0-.91.14-.78 1.83.12 1.53 0 1.94-.72 2.44-.68.48-.86.98-.81 2.27.03.91.03 1.75 0 1.86-.39 1.15-.34 2.04.09 1.9.52-.17.56-.47.65-3.97.09-3.64.48-1.78.62 2.92l.18 6.25c.04 1.42.18 1.7.85 1.7.95 0 1.18 3.43.3 4.38-.4.43-.4.48 0 .26.35-.2.5.07.5.9 0 1 .13 1.15.83.97.73-.2.81-.06.7 1.14-.08.86-.32 1.31-.66 1.24-.3-.06-.41.08-.27.3.14.24.42.32.63.2.2-.13.37-.03.37.23 0 .27-.33.39-.77.27-.54-.14-.7-.03-.56.35.12.31.43.56.7.56.26 0 .87.36 1.34.8.47.44 1.13.8 1.47.8.47 0 .62.44.62 1.76 0 1.57.09 1.74.8 1.56.61-.16.8-.02.8.63 0 .58.25.85.8.85.44 0 .8.2.8.42 0 .24-.18.32-.4.18-.22-.14-.29.02-.15.38.36.94-.52.74-1.23-.28-.47-.67-.78-.8-1.25-.5-.54.34-.9 1.18-.39.9.1-.06.46.26.8.7.49.64.68.7.96.26.28-.42.43-.43.66-.06.17.27.06.66-.25.88-.43.3-.4.34.15.17.38-.12.7-.06.7.15 0 .2.39.58.86.83l.86.46-.86-1.2c-1.1-1.54-1.08-1.69.14-1.69.55 0 1 .2 1 .42 0 .24-.18.32-.4.18-.22-.14-.29.02-.15.38.21.56.97.82 1.9.65.2-.03.24.21.11.55-.14.37.08.77.56 1.03.43.23.78.3.78.14 0-.15.4.07.9.49.72.62.78.63.34.06-.46-.6-.45-.7.11-.7.38 0 .65.33.65.8 0 .67.27.8 1.6.8s1.6.13 1.6.8c0 .52.27.8.75.8.49 0 .83.35.95 1 .1.55.01 1-.2 1-.23 0 .05.36.6.8 1.41 1.1 4.07.3 2.9-.87-.1-.1 2.83-.17 6.5-.16 4.2.02 6.69.18 6.67.43-.1 1.33 2.26 1.81 2.46.5.08-.55-.05-.61-.61-.3-.9.48-1.22.15-1.22-1.27 0-1.25 2.85-1.72 3.92-.65.37.37.48.2.48-.8 0-1.23.07-1.28 1.6-1.28 1.33 0 1.6-.13 1.6-.8s.27-.8 1.6-.8c1.48 0 1.82-.27 1.64-1.32-.03-.17.28-.14.69.08.55.3.75.25.8-.18l.14-1.2c.03-.34.3-.52.6-.41.53.2 1.46-1.05 1.12-1.52-.1-.14-.08-.17.06-.07.39.29 2.43-.88 2.68-1.53.23-.62.91-.65 1.83-.08.37.23.47.2.3-.08-.15-.23.05-.51.44-.61.38-.1.06-.2-.73-.23-1.24-.04-2.3-1.25-1.1-1.25.18 0 .33-.2.33-.42 0-.24-.18-.32-.4-.18-.22.14-.4.06-.4-.18 0-.23.36-.42.8-.42.73 0 1.09-1.08.84-2.53-.03-.18.11-.22.32-.1.65.4.98-.62.92-2.84-.05-1.87.04-2.13.73-2.13.52 0 .79-.27.79-.8 0-.44-.27-.8-.6-.8-.33 0-.6-.23-.6-.5-.01-.33-.11-.36-.3-.08-.6.84-2.9.67-2.9-.21 0-.45-.26-.81-.6-.81-.33 0-.6-.18-.6-.4 0-.22-.2-.4-.42-.4-.24 0-.32.18-.18.4.14.22.07.4-.14.4-.22 0-.48-.22-.6-.5-.16-.4-.2-.4-.23 0-.02.28-.23.5-.47.5-.25 0-.34-.27-.22-.6.13-.33.14-.6.02-.6-.12 0-.49.27-.82.6-.33.33-.94.6-1.37.6-.42 0-.77.27-.77.6 0 .65-.42.77-1.03.3-.21-.16-.07 0 .32.36 1 .93.98 3.54-.01 3.54-.4 0-1.08.27-1.5.6-.48.37-.54.52-.17.4.44-.16.63.09.7.9.06 1.03.03 1.05-.5.36-.52-.69-.58-.64-.83.7-.2 1.05-.47 1.44-1.03 1.44-.48 0-.75.28-.75.8 0 .47-.27.8-.64.8-.35 0-.97.4-1.39.9-.65.77-.81.81-1.16.3-.3-.44-.35-.28-.18.62.23 1.17.18 1.22-1.3 1.3-.99.06-1.34-.03-1-.26.43-.28.4-.4-.13-.6-1.12-.43-1.4-.3-1.35.64.03.68.09.73.23.2.1-.38.34-.7.54-.7.21 0 .21.4 0 .96-.2.53-.26 1.07-.13 1.2.13.13-.07.24-.45.24-.44 0-.58-.18-.39-.5.23-.38.17-.4-.27-.06-.36.28-2.52.45-5.58.45s-5.22-.17-5.58-.44c-.44-.34-.5-.33-.27.05.19.31.07.5-.33.5-.34 0-.6-.14-.57-.3.19-1.22-.12-1.5-1.65-1.44-1.33.05-1.6-.07-1.6-.7 0-.44-.28-.76-.67-.76-.37 0-1.04-.31-1.5-.7-.78-.67-.79-.67-.27 0 .46.6.45.7-.11.7-.38 0-.65-.33-.65-.8 0-.54-.27-.8-.8-.8-.78 0-.79-.05-.16-1 .36-.55.86-1 1.1-1 .3.01.31.12.06.3-.22.17-.46.55-.52.87-.1.44 0 .46.43.1.31-.25.7-.34.85-.18.15.16.15-.05 0-.47-.2-.52-.15-.66.17-.46.26.16.47.08.47-.18s-.25-.37-.56-.25c-.31.12-.89-.14-1.28-.57-.52-.58-1-.72-1.84-.54-.86.19-1.12.1-1.12-.39 0-.36-.34-.63-.8-.63-.54 0-.8-.27-.8-.82 0-.55.17-.73.5-.54.4.22.4.17 0-.26-.28-.3-.5-1.13-.5-1.86 0-1.04-.16-1.32-.78-1.32-.75 0-.78-.36-.8-9.2-.02-6.96.09-9.2.46-9.2s.37-.1 0-.48c-.84-.84-.6-3.12.32-3.12.6 0 .8-.27.8-1.04 0-.82.15-1 .7-.8.6.21.62.18.1-.26a2.61 2.61 0 0 1-.71-1.5c-.1-.93-.07-.95.45-.29.53.67.58.65.82-.31.17-.66.44-.93.75-.76.37.2.36.14-.01-.26-.28-.3-.5-.93-.5-1.41 0-1.13 2.36-1.75 2.9-.77.2.34.55.5.79.35.26-.16.32-.09.15.19-.16.25-.1.46.14.46.23 0 .42-.24.42-.54 0-.72 1.3-1.86 2.13-1.86.7 0 .88-.46.37-.97-.43-.43-.4-1.18.09-1.52.26-.2.23-.3-.09-.3-.28 0-.5-.19-.5-.41 0-.92 2.4-.43 2.43.5.02.5.12.67.24.4.1-.27.64-.5 1.18-.5.82 0 .9-.1.47-.56-.29-.3-.64-.48-.8-.39-.15.1-.24-.2-.21-.65.06-.8.27-.82 7.68-.78 6.5.04 7.5.12 6.87.58-.4.3-.99.45-1.3.33-.37-.14-.56.06-.56.58 0 .5.34.88.9 1.02.82.21.84.18.2-.3-.94-.7-.89-.84.32-.94.56-.05.94.06.83.24-.11.17.6.26 1.57.18 1.25-.09 1.78.02 1.78.38 0 .28.12.92.25 1.41.15.56.07.9-.23.9-.26 0-.34-.2-.2-.44.2-.3.02-.3-.57.01-.47.25-.85.6-.85.77 0 .42 1.17 1.94 1.19 1.55 0-.18.41-.12.91.12.88.43.89.42.1-.24-.8-.66-.8-.67.07-.47.63.15.81.06.66-.34-.12-.3-.38-.46-.57-.33-.2.12-.36 0-.36-.25 0-.3.34-.38.9-.23.5.13 1.13.24 1.4.25.3 0 .5.53.5 1.3.02 2.37.4 3.25 1.06 2.4.53-.66.56-.66.5.1-.14 2.01.05 2.6.84 2.6.44 0 .8.27.8.6 0 .37.38.6 1 .6.55 0 1 .16 1 .36 0 .2.3.47.66.6.55.22.57.16.15-.35-.44-.52-.33-.61.74-.61.84 0 1.25-.2 1.25-.6 0-.46.5-.6 2.1-.6 1.85 0 2.16-.13 2.56-1 .26-.55.3-.9.1-.78-.2.13-.36-.04-.36-.36 0-.4.28-.52.9-.37.89.2.89.2.1-.44l-.8-.65.8.27.8.27-.8-.94c-.7-.82-.71-.9-.1-.68.38.14.7.08.7-.13 0-.22-.27-.39-.6-.39-.33 0-.6-.23-.6-.5-.01-.37-.1-.36-.36.04-.19.3-.24.93-.12 1.4.21.8.18.82-.45.19-.66-.67-.96-2.16-.35-1.78.59.36.48-1.8-.12-2.4-.53-.54-.6-.54-.6.02 0 .35.18.63.4.63.22 0 .4.27.4.6 0 .37-.38.6-1 .6-.55 0-1-.2-1-.42 0-.24.18-.32.4-.18.22.14.4.06.4-.18 0-.23-.2-.42-.45-.42s-.35-.35-.23-.8c.2-.81-.94-1.84-1.47-1.32-.14.14-.25-.14-.25-.61 0-.6-.25-.87-.8-.87-.44 0-.8-.2-.8-.42 0-.24.17-.32.37-.2.2.13.47.07.6-.13.12-.2-.14-.45-.57-.57-.97-.25-1.06-1.3-.14-1.65.53-.2.56-.14.18.33-.4.46-.26.7.72 1.28.66.39 1.09.88.96 1.1-.14.21-.04.26.22.1.25-.16.46-.68.45-1.16 0-.73-.07-.78-.43-.28-.32.46-.37.32-.19-.6.23-1.13.2-1.16-.36-.42-.6.75-.61.75-.61-.13 0-.74-.16-.86-.85-.63-.57.18-.76.12-.58-.18.15-.24.58-.45.95-.47.56-.03.57-.08.08-.27a3.25 3.25 0 0 1-1.1-.87c-.43-.53-.47-.45-.25.53.21.93.16 1.1-.3.82-.42-.26-.41-.16.05.41.56.7.54.73-.4.45a9.7 9.7 0 0 0-1.5-.34c-.28-.02-.48-.23-.44-.47.13-.87-.53-1.78-1.13-1.55-.7.27-.64-1.86.07-2.37.22-.17-.14-.3-.8-.3-.84 0-1.03.1-.65.35.84.53.11 1.3-1.09 1.16-1.38-.16-1.82-1.49-.78-2.33.73-.6.73-.62-.07-.68-.46-.03-.73.09-.62.27.4.64-.94 1.25-2.53 1.16-.89-.05-1.53-.23-1.43-.39.21-.35-.93-1.55-1.48-1.55-.22 0-.3.14-.2.32.1.17-2.84.32-6.55.32s-6.66-.13-6.57-.3c.35-.55-.43-.65-.93-.11m-6.9 1.34c0 .2-.31.45-.7.55-.65.17-.65.2.02.23.47.03.62.23.43.55-.22.36-.12.36.35-.03.36-.29.55-.78.43-1.1-.24-.65-.53-.75-.53-.2m105.73 4.58c.11.3 0 .78-.26 1.05-.37.39-.34.46.13.32.66-.2.93-1.92.3-1.92-.21 0-.29.25-.17.55m-117.3 2.95c-.4.44-.3.5.61.39.61-.08 1.17-.32 1.24-.53.2-.58-1.28-.47-1.85.14m57.31 2.87c0 .63.23 1.1.52 1.1.63 0 .56-1.78-.07-2.02-.26-.1-.44.3-.44.92m-33.34-.27c0 .58.32.69 1.89.63 1.88-.06 1.88-.07.3-.23-.87-.09-1.72-.37-1.89-.63-.2-.31-.3-.23-.3.23m-10.53 2.66c-.05.8-.22 1.05-.52.8-.63-.51-1.04.06-.5.71.36.43.31.5-.2.3-.92-.35-.83-1.4.14-1.65.44-.12.8-.46.8-.77 0-.3.08-.55.18-.55.1 0 .15.52.1 1.16m86.4-.1c-.16.15-.28.55-.28.88 0 .48.14.44.63-.16.35-.43.51-.56.38-.28-.14.28-.05.5.2.5.54 0 .32-.89-.26-1.08a.72.72 0 0 0-.68.14m13.7 2.64c-.47 1.52.03 2.26.85 1.27.43-.5.42-.6-.05-.5-.32.07-.53-.1-.47-.37.08-.4-.22-.76-.33-.4m-52.98 3.12c-.13.2-.04.38.2.38.24 0 .6.4.8.9.23.57.38.68.43.3.03-.33.2-.15.35.4.35 1.17.11 2.1-.44 1.76-.22-.14-.16.13.13.58.28.45.6.73.71.62.27-.27.31-4.1.04-4.08-.76.06-1.22-.13-1.04-.44.13-.2-.04-.46-.36-.58-.32-.12-.7-.05-.82.16m14.39.81c-.1.17.03.37.3.46.36.12.36.24.02.45-.26.16-.63-.04-.86-.46-.3-.56-.26-.75.16-.75.31 0 .48.14.38.3m-81.37 1.55c-.32.2-.49.47-.37.6.12.11.56-.05.99-.37.84-.64.33-.82-.62-.23m53.93 1.2c.52.45 1.14.82 1.37.82.5 0 .47-.02-1.11-.94l-1.2-.7.94.82m-40.26.44c-.63 1-.62 1.05.34 1.3.63.17.73.1.4-.29-.53-.65-.05-1.15.6-.62.35.3.56.21.75-.29.15-.38.15-.57 0-.42-.15.15-.58.11-.94-.09-.49-.26-.8-.14-1.15.41m34.8-.23c.16.17.11.65-.1 1.06-.35.64-.26.75.6.75.7 0 1.02-.22 1.03-.7 0-.6.06-.62.43-.1.37.51.4.5.22-.07-.14-.43.04-.75.46-.86.6-.16.6-.18.03-.22-.36-.03-.88.22-1.15.55-.54.65-1.4.84-1.02.23.13-.2 0-.5-.27-.67-.28-.16-.38-.15-.22.03m68.13.44c-.65.48-.67.57-.12.57.36 0 .77-.2.92-.43.42-.68.04-.75-.8-.14m-117.29.76c0 .34.26.61.57.61.31 0 .5-.21.4-.47-.23-.73-.97-.83-.97-.14m116.67.59c0 .78.9.89 1.54.19.62-.68.62-.7-.04-.2-.47.36-.7.38-.7.08 0-.25-.18-.45-.4-.45-.22 0-.4.17-.4.38m-103.6 8.58c0 2.53.34 3.15 1.5 2.75 1.1-.39.64-5.31-.5-5.31-.96 0-1 .1-1 2.56m73.89-.97c-.12.43.01.96.28 1.19.37.3.45.11.31-.79-.2-1.4-.31-1.47-.6-.4m-12.86 2.85c.1.16-.08.36-.4.43-.34.07-.47.33-.3.59.19.3.5.16.95-.44.52-.7.55-.89.12-.89-.3 0-.47.14-.37.3m-73.82 1.15c0 .42.18.88.4 1.02.23.14.4-.2.4-.78 0-.56-.18-1.02-.4-1.02-.22 0-.4.35-.4.78m74.5 2.46c.4.22.6.62.44.88-.15.27-.12.35.06.18.18-.16.55-.1.83.13.37.3.48.27.43-.1-.15-1-.71-1.53-1.58-1.52-.8.01-.81.05-.17.43m23.49-.04c0 .25-.18.34-.4.2-.22-.14-.4-.06-.4.18 0 .52 1.07.56 1.38.05.13-.2.05-.49-.17-.63-.23-.13-.41-.05-.41.2m-42.16 3.44c-.14.37-.16.77-.05.88.12.12.21.07.21-.1 0-.18.3-.07.66.23.61.5.63.47.15-.45-.7-1.34-.68-1.33-.97-.56m-55.64.1.8.35-.8.23-.8.23.8-.08c.98-.1.92-.83-.08-.97-.6-.08-.58-.03.08.25m13.42 1.28c.2.37.23.79.08.94-.15.15.06.14.48-.02.6-.23.7-.15.5.38-.32.83.25.88.92.07.4-.5.38-.6-.15-.6-.58 0-.82-.44-.7-1.28.02-.15-.31-.24-.73-.21-.58.04-.67.21-.4.72m33.58 2.34c.53.38.53.48 0 .86s-.53.41 0 .27c.33-.1.6-.4.6-.7 0-.3-.27-.6-.6-.7-.53-.14-.53-.11 0 .27m14.5.89c-.04.56.13.74.53.58.47-.18.5-.07.16.57-.39.74.12 1.21.53.49.4-.7.7-2.69.32-2.13-.29.44-.51.47-.93.13-.43-.36-.56-.29-.6.36m-45.1.74c.23.4.1.47-.55.3-1.06-.28-1.12.15-.1.78.64.4.79.35.96-.3.11-.43.01-.9-.22-1.04-.27-.17-.3-.07-.1.26m-15.2.39c-.14.24-.03.38.25.32.6-.13.73 1.74.15 2.22-.24.2-.18.27.16.18.74-.2.92-2.15.25-2.7-.38-.32-.62-.32-.8-.02m2.39 5.61c-.14.22-.04.4.22.4s.38.23.27.52c-.13.34.2.55.94.6l1.14.1-1-1.01c-1.13-1.13-1.22-1.17-1.57-.61m78.31 1.96c-.03.43.2.87.51 1 .4.15.53-.04.44-.65-.17-1.1-.87-1.36-.95-.35m-58.26.44c.32 1.29.2 1.23 1.57.79 1.18-.38 1.18-.39.08-.24-1.1.14-1.54-.34-.6-.66.28-.1.2-.13-.18-.08-.38.06-.78-.1-.9-.35-.12-.25-.1-.01.03.54m57.75 2.74c0 .87 1.54 1.73 2.27 1.27.67-.43.67-.45.02-.25-.41.13-1.04-.1-1.5-.57-.43-.43-.79-.64-.79-.45m21.22.5c.15 1.07-.02 1.53-.85 2.3-.53.5-.68.87-.4 1.04.24.15.55-.02.68-.38.15-.37.5-.55.86-.41.5.19.52.12.1-.38-.46-.56-.3-.78.49-.66.52.09.32-.78-.33-1.44-.5-.5-.62-.51-.55-.07m-78.15 8.63c0 .3-.31.53-.69.53-.37 0-.88-.24-1.12-.53-.34-.41-.2-.53.69-.53.66 0 1.12.22 1.12.53m0 1.53c0 .26-.24.47-.54.47-.29 0-.53-.21-.53-.47s.24-.47.53-.47c.3 0 .54.21.54.47M279 298.3c-17.9.1-20.43.18-20.73.73-.25.44-.48.5-.85.2-.37-.31-.71-.19-1.27.47-.76.9-.76.9.07.2.46-.39.93-.6 1.05-.49.12.12 9.68.26 21.25.3l21.04.09-.07-.9c-.04-.5-.08-.86-.09-.8 0 .05-9.18.14-20.4.2m-179.94.37c-.37.37-.34 58.44.03 58.67.17.1.25-12.9.2-28.88-.1-27-.06-29.1.57-29.56.57-.42.58-.5.07-.5-.33 0-.73.12-.87.27m152.53.45c0 .2.3.62.65.92.56.46.62.43.5-.22-.16-.78-1.15-1.39-1.15-.7M98.19 328.2c0 16.06.05 22.57.11 14.47s.06-21.24 0-29.2c-.06-7.96-.11-1.33-.11 14.73m152.21-28.3c0 .17.36.54.8.81.76.47.78.45.31-.3-.5-.8-1.11-1.08-1.11-.5m-2.58.59c.27.7-.11.89-1.42.72-.42-.06-.36.1.19.5 1 .75 2.3-.59 1.43-1.45-.36-.36-.4-.3-.2.23m-3.22 1.9c-.4.44-.63.9-.51 1.02.26.27 1.51-.93 1.51-1.45 0-.54-.2-.46-1 .43m-6.6 9.2c-.46.3-.35.37.47.31.59-.04.99-.22.88-.4-.26-.4-.62-.38-1.35.1m82.16 3.33c0 1.02.11 1.24.48.9.26-.24.38-.6.25-.8-.13-.22.1-.25.54-.08.67.25.65.18-.11-.53-1.15-1.07-1.16-1.07-1.16.51m-246.42 2.13a.5.5 0 0 1-.24.7c-.4.18-.4.28 0 .46.28.13.39.43.24.67-.14.23-.08.31.13.18.47-.29.43-1.73-.06-2.17-.19-.17-.22-.1-.07.16m242.65.43c.4.81-.06 1.37-.5.6-.08-.17-.1-.07-.03.21.07.29-.14.62-.46.74-.5.2-.5.3-.02.79.75.75 1.25.72.62-.04-.4-.5-.38-.6.15-.65 1.43-.11 2.25-.56 2.25-1.25 0-.25-.28-.1-.63.32-.63.77-.63.77-.38 0 .14-.44.13-.67-.03-.51-.15.15-.53-.03-.84-.42-.5-.62-.52-.6-.13.21m-79.59 4.28c0 2.55.16 4.22.4 4.22.24 0 .4-1.6.4-3.98 0-2.22-.18-4.08-.4-4.22-.26-.16-.4 1.26-.4 3.98m76.4-1.04c.01.56.07.57.39.07.3-.49.43-.43.71.33.32.88.38.9.92.22.49-.6.5-.66.01-.37-.4.24-.5.18-.35-.22.15-.39-.09-.59-.73-.63-.64-.04-.95.16-.94.6m-.96 1.47c-.15.4-.08.53.2.36.24-.15.6-.02.79.28.2.32.35.36.35.1.02-.85-1.07-1.44-1.34-.74m-75.47 4.42c-.13 2.76.13 13.24.34 13.45.15.15.24-2.8.2-6.55-.04-3.75-.18-6.92-.3-7.04-.12-.12-.23-.06-.24.14M73.6 332.9c-.42 8.96-.08 30.93.49 30.93.47 0 .56-.14.28-.47-.24-.3-.34-6.11-.27-15.52.06-8.27-.03-15.04-.19-15.04-.17 0-.3.05-.3.1m.8 15.5c0 9.6.14 14.8.4 14.8s.4-5.2.4-14.8c0-9.6-.14-14.8-.4-14.8s-.4 5.2-.4 14.8m221.53-11.15c-.6.62-.6.71-.04.93.34.13.72.14.83.03.12-.12-.04-.22-.35-.24-.4-.02-.36-.11.12-.3.37-.15.55-.46.4-.7-.2-.27-.52-.17-.96.28m-2.43 2.43c.1.4.36.72.57.72.2 0 .27-.18.13-.4-.14-.22-.06-.4.18-.4.23 0 .42-.17.42-.38 0-.2-.33-.35-.74-.31-.5.03-.68.28-.56.77m-1 .99c-.7.27-.63.8.1.8.33 0 .6-.24.6-.54 0-.29-.05-.52-.1-.5-.06.02-.33.12-.6.24m-56.34.68c-.43 1.14.04 11.19.54 11.35.38.13.52-1.19.58-5.57l.09-5.73.23 5.6.24 5.6.08-5.65c.08-5.41.04-5.67-.74-5.87-.47-.12-.91 0-1.02.27m.54 8.35c-.08 1.6-.14.29-.14-2.9s.06-4.5.14-2.9c.07 1.6.07 4.2 0 5.8m53.94-7.63c.2.31.07.38-.4.2-.37-.14-.6-.13-.5.04.33.52-.86 1.79-1.38 1.47-.3-.2-.38-.14-.2.16.16.25.09.46-.16.46s-.34.17-.22.37c.13.2-.09.47-.47.59-.4.11-.21.15.4.08.86-.1 1-.02.66.4-.23.28-.72.4-1.09.26-.57-.22-.58-.18-.08.36.71.76 2.26-.41 1.87-1.42-.15-.39-.04-.53.3-.4.56.22 1.83-.82 1.83-1.5 0-.2.23-.26.5-.1.28.17.16-.1-.26-.57-.82-.94-1.27-1.16-.8-.4m-8.18 6.31c.09.26.29.47.45.45.48-.05.39-.6-.13-.77-.26-.09-.4.06-.32.32m-.04 1.6c-.32.2-.77.26-1 .13-.23-.13-.28-.09-.11.1.5.56 1.89.5 1.89-.08 0-.62-.02-.63-.78-.15M134.3 359.5c18.53.06 48.86.06 67.4 0 18.54-.06 3.37-.1-33.7-.1s-52.23.04-33.7.1m-60.15 7.08c-.12.31-.15.9-.06 1.3.1.45.23.23.36-.58.22-1.36.08-1.7-.3-.72m188.95 1.1c.14.53.34.62.69.33.26-.22.6-.28.75-.14.14.14.26.07.26-.16s-.43-.5-.94-.6c-.77-.14-.91-.04-.76.56M87.06 382.71c-.25.4.76 2.03 1.04 1.69.1-.11-.05-.62-.32-1.13-.27-.52-.6-.77-.72-.56m160.15.39c.01.71.7 1.38.96.94.15-.24.17-.62.03-.84-.29-.47-1-.54-1-.1" /><path d="M136.8 15.6c0 .53-.27.8-.8.8s-.8.27-.8.8-.27.8-.8.8-.8.27-.8.8-.27.8-.8.8-.8.27-.8.8-.27.8-.8.8-.8.27-.8.8c0 .64-.27.8-1.37.8-1.03 0-1.44.2-1.63.8-.14.44-.41.8-.6.8-.62 0-2.4 1.87-2.4 2.5 0 .43-.26.56-.8.42-.61-.16-.8-.02-.8.63 0 .76-.4 1.04-1.3.9-.17-.03-.3.31-.3.75 0 .65-.27.8-1.44.8-1.1 0-1.48.19-1.64.8-.12.44-.48.8-.8.8-.33 0-.69.36-.8.8-.12.44-.55.8-.97.8-.48 0-.75.28-.75.8 0 .53-.27.8-.8.8-.73 0-.8.27-.8 3.04 0 2.7.09 3.06.8 3.24.57.15.8.55.8 1.4 0 .86.23 1.25.8 1.4.44.12.8.55.8.97 0 .48.28.75.8.75.53 0 .8.27.8.8s.27.8.8.8.8.27.8.8.27.8.8.8.8.27.8.8.27.8.8.8c.65 0 .8.27.8 1.44 0 1.1.19 1.48.8 1.64.44.12.8.37.8.55 0 .19.63.97 1.4 1.74.77.77 1.4 1.58 1.4 1.79 0 .21.4.44.9.51.57.08.88.39.84.83-.03.44.23.7.7.7.5 0 .76.28.76.8 0 .53.27.8.8.8.65 0 .8.27.8 1.44 0 1.1.19 1.48.8 1.64.44.12.8.48.8.8 0 .33.36.69.8.8.44.12.8.55.8.97 0 .48.28.75.8.75.53 0 .8.27.8.8s.27.8.8.8.8.27.8.8.27.8.8.8.8.27.8.8.27.8.8.8c.65 0 .8.27.8 1.4v1.4h-28.3c-28.89 0-31.3.09-31.3 1.05 0 .3-.27.55-.61.55-.33 0-.78.45-1 1-.2.55-.6.96-.88.9-.28-.05-.46.13-.4.4.05.29-.37.7-.95.91-.68.26-.96.6-.81 1 .15.4-.03.59-.54.59-.41 0-.87.36-1.01.8-.14.44-.51.8-.83.8-.67 0-.77 1.68-.17 2.8.28.53.26.84-.06 1.04-.29.17-.35.1-.18-.18.19-.3-.06-.46-.74-.46-.98 0-1.02.1-1.02 2.4 0 2.13-.09 2.4-.8 2.4-.8 0-.8.27-.8 100.57v100.57l.9.18.9.17-.88.06c-1.29.08-1.38 11.85-.1 12.26 1.16.36 1.14 3.39-.02 3.39-.65 0-.8.27-.8 1.4s.15 1.4.8 1.4c.71 0 .8.27.8 2.4s-.09 2.4-.8 2.4c-1.17 0-1.17 2.78 0 3.08.79.21.8.55.8 23.39 0 18.43.1 23.12.5 22.9.4-.23.4-.18 0 .25-.9.98-.66 6.41.3 6.66.68.18.8.55.8 2.37 0 1.56.15 2.15.55 2.15.3 0 .65.36.77.8.12.49.54.8 1.07.8.68 0 .81.17.61.8-.21.66-.07.8.8.8.87 0 1.01.14.8.8-.2.61-.07.8.53.8.44 0 .87.35.99.8.17.68.54.8 2.4.8 1.85 0 2.22.12 2.4.8.2.8.54.8 82.04.8 81.57 0 81.84 0 81.84-.8 0-.53.27-.8.8-.8s.8-.27.8-.8.27-.8.8-.8.8-.27.8-.8.27-.8.8-.8.8-.27.8-.8.27-.8.8-.8.8-.27.8-.8c0-.55.27-.8.84-.8.72 0 .82-.19.67-1.21-.12-.84-.05-1.09.24-.8.59.59 1.05.5 1.05-.19 0-.55.5-.79 1.34-.63.74.13 1.86-.45 1.86-.97 0-.3.36-.66.8-.8.44-.14.8-.5.8-.78 0-.29.36-.62.8-.74.44-.11.8-.47.8-.8 0-.32.36-.68.8-.8.44-.11.8-.5.8-.84 0-.37.34-.64.8-.64.53 0 .8-.27.8-.8s.27-.8.8-.8.8-.27.8-.8.27-.8.8-.8.8-.27.8-.8.27-.8.8-.8.8-.27.8-.8.27-.8.8-.8.8-.27.8-.8c0-.44.27-.8.6-.8.33 0 .6-.36.6-.8 0-.53.27-.8.8-.8.44 0 .8-.27.8-.6 0-.33.36-.6.8-.6.53 0 .8-.27.8-.8s.27-.8.8-.8.8-.27.8-.8.27-.8.8-.8.8-.27.8-.8.27-.8.8-.8.8-.27.8-.8.27-.8.8-.8c.57 0 .8-.27.8-.92 0-.81.16-.9 1.36-.76 1.1.13 1.41 0 1.63-.68.14-.46.52-.84.84-.84.31 0 .57-.29.57-.64 0-.35.35-.73.79-.84.43-.11.9-.55 1.02-.96.14-.42.5-.76.82-.76.31 0 .57-.36.57-.8 0-.53.27-.8.8-.8.44 0 .8-.25.8-.55 0-.3.36-.65.8-.77.44-.11.8-.47.8-.8 0-.32.36-.68.8-.8.44-.11.8-.5.8-.84 0-.37.33-.64.8-.64.53 0 .8-.27.8-.8s.27-.8.8-.8.8-.27.8-.8.27-.8.8-.8.8-.27.8-.8.27-.8.8-.8.8-.27.8-.8.27-.8.8-.8.8-.27.8-.8.27-.8.8-.8.8-.27.8-.8c0-.44.25-.8.55-.8.32 0 .55-.42.55-1 0-.55-.16-1-.35-1-.2 0-.35.2-.35.42 0 .24-.18.32-.4.18-.22-.14-.4-.04-.4.2 0 .3-.41.37-1.17.2-.93-.2-1.21-.1-1.4.53a1.7 1.7 0 0 1-1.08 1c-.46.12-.72.39-.6.6.3.49-.87.96-1.49.6-.25-.14-.33-.12-.17.06.5.56-.45 1.8-1.17 1.53-.47-.19-.6-.1-.43.33.12.32-.03.93-.33 1.34-.31.42-.56.55-.56.29 0-.27-.2-.48-.42-.48-.24 0-.34.14-.24.3.1.17-.06.76-.36 1.3-.3.55-.56.78-.57.5 0-.27-.19-.5-.41-.5-.22 0-.38.13-.35.3.2 1.25-.1 1.53-1.45 1.38-1.2-.14-1.4-.05-1.4.68 0 .57-.25.84-.8.84-.53 0-.8.27-.8.8s-.27.8-.8.8-.8.27-.8.8c0 .74-.44 1-1.37.82-.2-.03-.14.2.12.52.49.59-.73 1.39-1.7 1.12-.2-.05-.26.27-.14.72.14.52.02.82-.3.82-.3 0-.63.28-.76.62-.14.36-.07.52.15.38s.4-.07.4.15-.2.53-.44.68c-.29.17-.3.36-.05.52.24.15.16.47-.21.82-.53.49-.59.49-.42 0 .1-.31-.1-.8-.44-1.1-.35-.3-.41-.42-.14-.28.28.14.5.07.5-.17 0-.23-.37-.42-.82-.42-.55 0-.78.22-.7.7.08.47-.18.74-.78.83-.64.09-.9.4-.9 1.06 0 .76-.16.9-.86.7-.73-.18-.83-.08-.64.65.12.47.04.86-.18.86-.23 0-.31.4-.19.9.22.87.21.87-.35.12-.5-.67-.58-.69-.58-.1 0 .38-.29.68-.64.68-.42 0-.56.22-.4.62.13.36.06.52-.17.38-.21-.14-.39-.07-.39.15s-.36.51-.8.65c-.44.14-.8.51-.8.83 0 .31-.26.57-.59.57-.39 0-.5.24-.33.7.13.38.1.57-.08.4-.18-.16-1 .42-1.83 1.29-.94.98-1.59 1.4-1.71 1.1-.1-.27-.21-.1-.23.36-.02.5-.36.94-.83 1.07-.44.11-.8.4-.8.63 0 .24.3.3.7.16.66-.25.65-.22-.01.45-.42.42-.62 1.03-.49 1.45.13.4.05.84-.18.98-.25.15-.31-.01-.15-.44.17-.43.1-.58-.16-.42-.24.15-.4-.04-.37-.43.05-.51-.3-.73-1.24-.82-.97-.1-1.3.03-1.3.5 0 .35-.34.62-.8.62-.53 0-.8.27-.8.8s-.27.8-.8.8-.8.27-.8.8c0 .44-.23.8-.51.8-.29 0-.52.35-.52.77 0 .42.12.7.27.6.15-.09.38.1.5.43.13.32.46.53.75.46.28-.07.37-.05.2.04-.16.1-.18.36-.03.6.16.25.07.3-.2.14-.28-.18-.47 0-.5.44-.02.56-.07.58-.24.12-.38-1.01-1.41-2-2.08-1.99-.53.01-.5.12.14.6.7.53.7.59.07.59-.38 0-.59.18-.45.4.16.26.55.24 1.12-.06.8-.43.83-.4.33.2-.45.55-.46.66-.01.66.3 0 .12.3-.4.65-.72.51-.8.73-.38 1 .52.33 0 .55-.96.4-.17-.03-.3.12-.3.34 0 .21-.3.27-.67.13-.48-.19-.57-.11-.33.27.21.36.17.44-.14.25-.33-.2-.34-.51-.05-1.06.49-.9.83-.97 1.57-.28.44.4.47.39.18-.1a3.2 3.2 0 0 1-.36-1.4.9.9 0 0 0-.8-.9c-.79-.13-.79-.12-.02.48.42.34.65.64.5.67l-.68.15c-.22.06-.6.12-.84.15-.25.03-.34.33-.2.67.13.36.06.52-.17.38-.52-.32-1.72.87-1.4 1.4.14.22 0 .3-.33.17-.37-.14-.7.1-.87.65-.22.7-.35.76-.63.33-.34-.54-.4-.46-.51.53-.03.27-.41.58-.85.7s-.86.49-.93.82c-.07.33-.3.66-.5.73-.2.08-.28.3-.15.5.12.2-.06.25-.4.12-.39-.15-.62-.01-.62.36 0 .33-.28.71-.63.84-.34.14-.5.43-.37.65.13.22-.04.4-.4.4-.37 0-.53.19-.38.44.19.3 0 .3-.6-.03-.75-.4-.85-.37-.74.26.11.7-2.81.73-79.58.83l-79.7.1v-.83c0-.73-.22-.82-1.9-.76-2.72.09-2.9.05-2.9-.57 0-.38-.47-.56-1.43-.56-1.5 0-1.96-.24-1.98-1.01 0-.27-.53-.44-1.2-.4-.65.03-.96-.03-.69-.14.7-.27.63-1.73-.08-1.73-.31 0-.69.19-.83.42-.18.29-.42.28-.79-.02-.38-.31-.56-.3-.68.03-.1.3-.34.23-.7-.2-.3-.38-.39-.63-.19-.57.2.05.78-.04 1.27-.2 1.28-.44 1.37-4.26.1-4.26-.49 0-.8-.27-.81-.7v-19.2c.03-14.75-.07-18.5-.48-18.5-.32-.01-.36-.12-.1-.3.64-.47.74-2.9.12-2.9-.36-.01-.39-.1-.1-.3.27-.18.45-1.62.45-3.5s-.18-3.32-.44-3.5c-.3-.2-.3-.29.05-.3.38 0 .49-8.84.5-40.24.02-36.65-.04-40.23-.62-40-.35.13-.89.24-1.2.24-.48 0-.58 3.78-.67 24.9l-.1 24.9-.1-24.94c-.1-24.64-.1-24.94.7-25.14.93-.25 1.3-46.52.38-46.52-.24 0-.32.18-.18.4.14.22-.16.4-.66.4-.67 0-.78-.12-.45-.45.28-.28.33-.78.12-1.32-.26-.7-.18-.88.44-.92.42-.04.66.1.53.31-.12.21-.04.38.2.38.68 0 .53-4.75-.18-5.46-.36-.36-.6-.42-.6-.14 0 .24-.18.34-.4.2-.22-.14-.4-.06-.4.18 0 .23.18.42.4.42.22 0 .4.18.4.4 0 .22-.26.4-.58.4-.41 0-.56-.47-.52-1.7.02-.94.11-1.39.2-1 .09.38.34.7.57.7.23 0 .31-.27.19-.6-.13-.33-.06-.6.15-.6a.4.4 0 0 1 .39.4c0 .22.18.4.4.4.59 0 .5-3.49-.1-3.77-.4-.18-.4-.28 0-.46.6-.29.65-1.54.09-2.6-.29-.53-.29-.77 0-.77.45 0 .55-1.18.17-2.16-.13-.35-.4-.54-.58-.43-.19.12-.54-.2-.78-.7-.38-.77-.36-.81.08-.28.29.35.75.56 1.02.47.6-.2.68-2.1.09-2.1-.29 0-.29-.24 0-.77.56-1.05.52-2.43-.07-2.43-.37 0-.37-.1 0-.48.63-.63.62-2.6-.02-2.86-.32-.13-.36-.31-.1-.53.26-.22.33-12.8.2-37.03-.11-20.18-.06-36.7.1-36.7.17 0 .3-.35.3-.79 0-.52.2-.71.57-.56.43.16.57-.1.54-1.02-.02-.67-.23-1.23-.47-1.24-.24 0-.2-.16.11-.35.66-.42.26-1.24-.6-1.24-.33 0-.48-.19-.34-.42.16-.25.45-.28.73-.06.84.64 2.05-.05 2.2-1.26.08-.7-.03-1.05-.28-.9a.48.48 0 0 1-.66-.16.5.5 0 0 0-.69-.14c-.27.16-.32.08-.14-.22.23-.37.43-.37.9.01.5.42.54.33.3-.64-.2-.81-.16-1.05.18-.84.25.16.36.45.23.66-.12.2.23.37.8.37.75 0 1.02-.2 1.02-.8 0-.53.27-.8.8-.8.52 0 .8-.27.8-.75 0-.42.36-.85.8-.97.44-.11.8-.5.8-.84 0-.48.4-.64 1.6-.64 1.57 0 1.85-.34 1.67-2.03-.01-.13.23-.24.55-.24.32 0 .58.16.58.34 0 .19 13.77.33 30.6.32 27.47-.02 32-.16 30.1-.93-.37-.14-.36-.2.05-.23.44-.02.45-.15.05-.63-.34-.42-.36-.6-.05-.6.25 0 .45-.45.45-1 0-.73-.21-1-.8-1-.74 0-1-.44-.83-1.37.04-.2-.2-.13-.55.15-.53.45-.66.35-.87-.72-.13-.67-.36-1.21-.5-1.2-.87.11-1.25-.17-1.25-.93 0-.47-.12-.75-.26-.6-.4.4-1.32-.52-1.1-1.1.1-.27-.08-.5-.42-.5-.34 0-.62.15-.62.34 0 .18-.15.33-.33.33-.18 0-.25-.54-.16-1.2.18-1.18-.44-1.7-.84-.7-.17.4-.21.4-.24 0-.02-.28-.3-.5-.63-.5s-.6.22-.6.5c-.01.37-.1.35-.36-.05-.29-.46-.38-.46-.56 0-.15.38-.23.32-.25-.17-.02-.4-.19-.63-.38-.51-.19.11-.32-.19-.3-.68.04-.72-.13-.86-.91-.75-.9.12-.92.09-.3-.53.86-.87.84-1.13-.05-.65-.6.31-.74.2-.8-.61-.05-.58.08-.9.32-.74.22.13.3.41.17.62-.36.58.47.43.98-.18.5-.6-.37-1.7-.92-1.16-.15.16-.16-.02-.02-.4.34-.9-.17-.89-.9.01-.32.38-.45.45-.29.14.55-1.05.52-2.44-.05-2.44-.62 0-2.58-1.84-2.58-2.42 0-.2-.59-.63-1.3-.95-.72-.3-1.07-.58-.8-.6.74-.05.65-2.43-.1-2.43-.88 0-2.6-1.63-2.6-2.47 0-.79-.6-.98-1-.33a.93.93 0 0 1-.72.4c-.3-.01-.33-.12-.08-.3.49-.36.72-2.1.28-2.1-.18 0-.54.22-.8.48-.37.37-.48.2-.48-.8 0-1.37-.41-1.63-1.17-.72-.25.31-.77.5-1.15.43l-.98-.16c-.63-.06-.27-.75.5-.95.53-.14.8 0 .8.38 0 .32.14.5.31.4.18-.11.25-.93.16-1.83-.18-1.9-1.28-2.22-2.78-.83-1.02.95-1.29 1-1.29.23 0-.32-.28-.86-.63-1.2-.34-.35-.45-.63-.23-.63s.68-.1 1.03-.24c.41-.16.63-.02.63.4 0 .35-.21.64-.47.64-.25 0-.37.1-.25.21.44.44 2.32-.61 2.3-1.3 0-.68-.03-.68-.54 0-.57.74-1.23-.27-1.06-1.62.03-.27-.09-.48-.26-.45-1.08.18-1.32-.16-1.32-1.86 0-1.17.15-1.73.42-1.57.23.14.71.02 1.07-.28.47-.38.58-.39.36-.03-.2.34-.03.5.53.5.55 0 .82-.26.82-.8 0-.52.27-.8.77-.8s.82-.32.9-.9c.09-.6.36-.86.83-.78.48.08.7-.15.7-.7 0-.45.2-.82.43-.82.24 0 .36-.23.27-.5-.1-.27-.36-.5-.6-.5s-.58-.16-.77-.36c-.19-.21-.13-.25.14-.1.26.15.58.1.72-.12.13-.22.77-.29 1.43-.16 1.06.21 1.18.13 1.18-.77 0-.7.2-.98.7-.95.44.04.68-.2.64-.64-.03-.38.15-.7.4-.7s.2-.18-.14-.39c-.47-.3-.41-.36.28-.3.47.03.78.2.67.37-.1.18.35.32 1.03.32.95 0 1.22-.17 1.22-.8 0-.71.4-.98 1.29-.85.15.02.18-.24.04-.58-.14-.38-.62-.57-1.25-.5-.63.09-1.07-.1-1.18-.47-.13-.48-.09-.5.22-.06.25.36.47.4.64.13.14-.23.6-.4 1.02-.36.42.03.68.2.57.37-.1.18.28.32.87.32.74 0 1-.17.85-.55-.26-.68.46-1.45 1.11-1.2.27.1.49-.1.49-.43 0-.34-.2-.63-.44-.64-.23-.02 0-.2.5-.4.52-.21 1.1-.28 1.3-.16.2.13.37-.14.37-.6 0-.7.25-.82 1.82-.82 1.36 0 1.75-.13 1.53-.5-.3-.49.67.16 1.75 1.17.4.37.4.5 0 .67-.28.1-.1.21.4.23.66.02.9.27.9.93.01.66.1.75.36.36.24-.39.42-.41.62-.1.15.25.4.38.56.28.15-.1.2.53.13 1.4-.12 1.23-.02 1.56.49 1.56.37 0 .64.33.64.8 0 .44.2.8.42.8.24 0 .32-.18.18-.4-.14-.22-.05-.4.19-.4s.54.53.67 1.18c.13.66.35 1.17.49 1.16 1.16-.15 1.56.13 1.38.96-.16.72-.12.78.23.3.26-.36.43-.41.43-.13 0 .26.4.6.86.75.68.21.74.34.3.62-.43.28-.35.42.35.6.74.2.9.54.9 1.8 0 1.3.13 1.56.82 1.56.52 0 .72-.17.54-.46-.17-.29-.1-.36.18-.18.27.17.36.7.22 1.27-.2.8-.1.97.6.97.75 0 1.03.4.89 1.3-.03.16.23.3.58.3.92 0 1.9 1.07 1.27 1.37-.28.13-.03.15.54.04.95-.18 1.03-.1.87.9-.1.6-.03.91.16.69.4-.5 1.35-.71 1.28-.3-.17 1.12.08 1.87.45 1.3.26-.4.39-.43.4-.1 0 .28.28.5.62.5.35 0 .53-.15.42-.34-.12-.19.2-.27.7-.17 1.15.22 1.23 1.21.1 1.15-.66-.03-.87.23-.97 1.26-.09.97.04 1.3.5 1.3.36 0 .63.34.63.8 0 .44.2.8.42.8.24 0 .33-.16.2-.36-.12-.2.11-.28.52-.17.54.14.69.46.55 1.18-.1.54-.03.95.16.92 1.18-.22 1.66.08 1.5.93-.08.5-.05.68.08.4.31-.66 1.37.36 1.37 1.32 0 .49.25.63.93.5.8-.16.9-.05.74.8-.17.93-.1.98 1.19.73 1.18-.22 1.37-.15 1.37.53 0 .53-.14.66-.45.4-.32-.26-.47.04-.5 1.02-.05 1.25.05 1.4.97 1.4.72 0 .97.17.82.56-.19.5.08.55 1.26.27.07-.02-.26-.57-.73-1.23-.49-.69-.66-1.2-.39-1.2.26 0 .56.38.68.83.14.54.46.77.9.66.78-.2 1.83 1.13 1.2 1.52-.22.13-.27.46-.1.72.15.26.23.88.17 1.37-.09.68.08.9.71.9.56 0 .83.26.83.8 0 .57.27.8.93.8.83 0 .91.16.8 1.6-.1 1.21.02 1.6.47 1.6.33 0 .6.36.6.8 0 .53.27.8.8.8.55 0 .8.27.8.84 0 .58.19.77.59.62.32-.13.76.07.96.44.26.46.54.55.93.28.3-.2.21-.07-.2.32-.58.53-.63.7-.19.7.82 0 1.83-1.26 1.7-2.1-.07-.39.03-.61.2-.5.46.28.29 1.18-.36 1.96-.44.53-.44.64.02.65.33 0 .4.12.15.3-.68.5-.7 1.41-.02 1.15.58-.22 1.62 1 1.2 1.42-.1.1.14.16.52.14.38-.03.7-.23.71-.44 0-.2-.26-.33-.6-.26-.52.1-.53.06-.03-.27.38-.26.85-.24 1.4.06.45.25.97.42 1.15.36.18-.05.22.09.09.3-.14.22-.54.28-.9.14-.44-.16-.56-.1-.36.22.16.26.13.47-.05.47-.19 0-.38.55-.43 1.23-.08.97.05 1.2.61 1.1.87-.14 1.71.35 1.7 1 0 .28-.16.23-.39-.13-.33-.51-.39-.5-.4.09 0 .65 3.56.7 62.3.7 62.04 0 62.3 0 62.43.8.07.45.4.81.72.81.33 0 .5-.17.37-.37-.12-.2.32-.16.98.1.71.26 1.2.73 1.2 1.16 0 .56.33.71 1.6.71 1.35 0 1.6.13 1.6.83 0 .63.21.8.9.69.52-.08.85-.38.78-.7-.1-.46-.01-.46.5-.04.33.28.49.72.34.97-.15.25.07.18.48-.15.41-.33.63-.39.47-.13-.16.26-.12.57.07.7.2.12.21.95.02 1.92-.7 3.66-.48 5.51.66 5.51.58 0 .92.17.78.4-.14.22-.01.4.28.4.43 0 .52 19.25.52 107.9v107.9l.2-107.8c.12-62.93.05-108.01-.16-108.31-.2-.28-.24-.63-.1-.77.14-.14.26-.03.26.24s.16.39.36.27c.78-.49.83 5.61.74 109.37l-.1 107.8-.2-108.2-.2-108.2-.1 108.1c-.08 86.13-.2 108.1-.6 108.14-.28.03-1 .01-1.6-.03-.85-.05-1.1.1-1.1.71 0 .43-.3 1.03-.68 1.33-.46.37-.58.39-.37.05.16-.27.1-.5-.13-.5s-.42.36-.42.8c0 .67-.27.8-1.6.8-1.16 0-1.6.17-1.6.6 0 .33-.36.6-.8.6-.53 0-.8.27-.8.8s-.27.8-.8.8-.8.27-.8.8-.27.8-.8.8-.8.27-.8.8c0 .52-.27.8-.77.8s-.82.32-.91.9c-.08.5-.37.85-.66.79-.28-.06-.41.06-.29.27.3.48-.92 1.72-1.4 1.42-.2-.13-.37.14-.37.6 0 .7-.35.97-1.21.9-.12-.01-.4.6-.65 1.37-.31 1-.31 1.34.01 1.23.25-.08.45-.34.45-.58 0-.24.15-.58.33-.77.19-.18.28-.06.2.27-.07.33.1.55.4.49.3-.06.42.07.28.3-.15.23.12.41.6.41.62 0 .8-.18.64-.6-.16-.42.04-.6.66-.6 1.5-.01 2.69-.47 2.69-1.02 0-.29.36-.64.8-.78.44-.14.8-.5.8-.8 0-.3.36-.66.8-.8.44-.14.8-.5.8-.78 0-.29.36-.62.8-.74.44-.11.8-.47.8-.8 0-.32.36-.68.8-.8.44-.11.8-.47.8-.8 0-.32.36-.68.8-.8.44-.11.8-.47.8-.8 0-.32.36-.68.8-.8.44-.11.8-.5.8-.84 0-.35.27-.64.6-.64.33 0 .6-.36.6-.8 0-.53.27-.8.8-.8s.8-.27.8-.8.27-.8.8-.8c.8 0 .8-.27.8-110s0-110-.8-110c-.84 0-.94-.41-.8-3.3.05-1.27-.06-1.5-.77-1.5-.7 0-.83-.25-.83-1.6 0-1.1-.17-1.6-.55-1.6-.3 0-.65-.36-.77-.8-.11-.44-.5-.8-.84-.8a.63.63 0 0 1-.64-.61c0-.34-.3-.73-.67-.87a5.25 5.25 0 0 1-1.44-1.03 1.94 1.94 0 0 0-1.73-.58c-.71.13-.96 0-.96-.51 0-1.17-.99-1.2-64.1-1.2-54.04 0-61.1-.07-61.1-.6 0-.33-.25-.6-.55-.6-.3 0-.65-.36-.77-.8-.11-.44-.5-.8-.84-.8-.37 0-.64-.33-.64-.8 0-.53-.27-.8-.8-.8s-.8-.27-.8-.8-.27-.8-.8-.8-.8-.27-.8-.8-.27-.8-.8-.8c-.65 0-.8-.27-.8-1.44 0-1.1-.19-1.48-.8-1.64-.44-.12-.8-.55-.8-.97 0-.48-.28-.75-.8-.75-.55 0-.8-.27-.8-.85 0-.65-.19-.8-.8-.63-.64.16-.8 0-.8-.76 0-.7-.22-.96-.8-.96-.44 0-.8-.25-.8-.55 0-.3-.36-.65-.8-.77-.61-.16-.8-.54-.8-1.64 0-1.17-.15-1.44-.8-1.44-.53 0-.8-.27-.8-.8 0-.44-.25-.8-.55-.8-.3 0-.65-.36-.77-.8-.11-.44-.5-.8-.84-.8a.64.64 0 0 1-.64-.64c0-.35-.36-.73-.8-.84-.44-.12-.8-.55-.8-.97 0-.48-.28-.75-.8-.75-.55 0-.8-.27-.8-.85 0-.66-.2-.8-.9-.67-.83.16-.9.04-.76-1.31.11-1.23-.01-1.54-.7-1.76-.46-.14-.84-.51-.84-.81 0-.3-.36-.66-.8-.8-.44-.14-.8-.51-.8-.83 0-.31-.36-.57-.8-.57-.53 0-.8-.27-.8-.8s-.27-.8-.8-.8-.8-.27-.8-.8c0-.58-.27-.8-.96-.8-.79 0-.92-.16-.74-.86.2-.73.08-.83-.74-.67-.91.17-.95.1-.82-1.54.1-1.33 0-1.73-.45-1.73-.33 0-.7-.36-.8-.8-.12-.44-.48-.8-.8-.8-.33 0-.7-.36-.8-.8-.12-.44-.48-.8-.8-.8-.33 0-.7-.36-.8-.8-.15-.54-.43-.72-.85-.56-.48.19-.64 0-.64-.8 0-.57-.2-1.04-.44-1.04-.28 0-.38.54-.28 1.4.1.86.02 1.26-.21 1.03-.4-.4-.53-1.24-.62-3.73-.04-1.22-.2-1.5-.85-1.5-.53 0-.8-.27-.8-.8s-.27-.8-.8-.8-.8-.27-.8-.8-.27-.8-.8-.8-.8-.27-.8-.8-.27-.8-.8-.8-.8-.27-.8-.8-.27-.8-.8-.8-.8-.27-.8-.8c0-.44-.25-.8-.55-.8-.3 0-.65-.36-.77-.8-.17-.68-.54-.8-2.44-.8-1.97 0-2.24.1-2.24.8m3.2.87c0 .2.18.27.4.13.22-.14.29.02.16.36-.2.54-.34.54-1.17 0-.89-.58-.92-.57-.75.31.1.51.06.7-.07.43-.13-.28-.37-.42-.54-.32-.16.1-.3-.08-.3-.4s.16-.58.36-.58c.2 0 .26-.15.15-.34-.12-.19.23-.26.77-.16.55.1.99.36.99.57m8.03 8.74c.42.23.77.57.77.77 0 .54-1.52 0-1.76-.62-.26-.67-.05-.7.99-.15m-24.35 5.97c.55.89.94.77.58-.16-.13-.34-.42-.62-.65-.62-.26 0-.24.29.07.78m-2.35.98c.15.38-.02.49-.56.35-.89-.23-1.04-.91-.21-.91.3 0 .65.25.77.55m-1.46 1.22c-.36.92-1.29.77-1.36-.22-.07-.81-.05-.81.5-.1.51.7.53.68.32-.25-.2-.8-.14-.9.27-.53.28.26.4.76.27 1.1m35.97.48c-.12.3 0 .56.27.58.37.03.37.08-.01.23-.76.31-.6 1 .2.87.38-.06.7.05.7.26 0 .75-1.4.45-1.66-.36-.48-1.47-.4-2.55.17-2.33.3.11.44.45.33.75m-39.02 1.32c-.5.93-1.03 1.06-1.46.37-.17-.29-.1-.35.18-.18.27.17.46.04.46-.3 0-.33.22-.67.5-.77.74-.27.82-.05.32.88m48.38 9.23c-.53.34-.53.39 0 .4.52.01.52.06.02.38-.45.29-.34.42.52.64 1.15.29 1.12.66-.05.84-1 .16-1.76-.99-1.26-1.91.22-.41.62-.75.88-.74.3 0 .27.15-.11.39m-40.8 7.08c0-.38.19-.68.41-.68.29 0 .29.25 0 .79-.48.88-1.48.7-1.48-.26 0-.53.09-.52.54.1.48.65.53.66.53.05m50.5 6.62c-.64.81-.44 1.84.35 1.79.68-.05.69-.1.04-.84-.38-.43-.48-.66-.22-.51.55.32 1.12-.38.58-.7-.2-.13-.53 0-.75.26m-39.1 4.51c-.74.61-.75.64-.04.41.64-.2.67-.14.25.37-.4.49-.38.65.16.85.5.2.55.38.2.8-.52.63-.55.6.85.73.9.09 1.04-.07 1.12-1.24.07-1.08-.06-1.33-.7-1.33-.43 0-.84-.28-.91-.62-.12-.55-.22-.55-.93.03m47.08 2.55c.32-.45.36-.43.19.1-.11.35 0 .84.24 1.09.59.59.74 1.73.19 1.39-.27-.17-.35-.04-.2.33.12.33 0 .6-.26.6s-.5-.34-.54-.75c-.03-.4.12-.63.32-.5.21.12.38.04.38-.2 0-.23-.35-.42-.77-.42-.87 0-1.27-1.16-.64-1.86.3-.34.45-.3.55.16.12.52.2.53.54.06m-38.25 9.13c.38.38.54.39.66.03.1-.3.26-.22.42.2.16.42.08.64-.22.58-.68-.14-.61 1.8.07 2.02.37.12.44.01.23-.33-.2-.33-.15-.42.12-.24 1.01.62.35 1.65-1.09 1.7-.78.02-1.1-.04-.72-.14.76-.18.94-1.11.3-1.51-.23-.14-.3-.45-.15-.69.16-.26.09-.32-.19-.15-.25.16-.46.13-.46-.06 0-.2-.4-.78-.89-1.3-.7-.76-.74-.9-.18-.68.46.18.79.04.96-.4.2-.55.3-.57.45-.1.1.3.41.8.7 1.07m107.62 2.21 59.54.1-59.8.1-59.8.1-.49-1.1-.5-1.1.76.9.76.9 59.53.1m-108.66.2c0 .27-19.28.27-44.2 0-5.28-.07 2.5-.16 17.3-.2 14.8-.06 26.9.03 26.9.2m178 4.58c0 .15-.34.25-.75.21-.62-.04-.67-.18-.32-.76.41-.65 1.04-.33 1.06.55m1.37 3.3c.1.56.31 1.22.47 1.48.19.29.12.36-.17.18-.25-.16-.46-.1-.46.14 0 .23.35.42.78.42 1.02 0 .95-2.12-.09-2.77-.62-.4-.69-.32-.53.55M73.8 93.44c-.4.16-.42 71.4-.02 72.46.1.28.02.5-.2.5a.4.4 0 0 1-.38-.4c0-.22-.18-.35-.4-.3-.3.08-.56-67.3-.27-71.72.02-.34.4-.64.86-.66.44-.02.63.03.41.12m-1.9 53.86c-.06 9.73-.1 1.77-.1-17.7s.04-27.43.1-17.7c.06 9.73.06 25.66 0 35.4m27.3-47.28c0 .46.18.72.4.58.22-.14.29.02.15.38-.25.65-.95.86-.95.29 0-.19-.27-.34-.6-.34-.53 0-.6 2.84-.6 23.1 0 20.15.08 23.11.6 23.31.53.2.61 4.77.7 37.15l.1 36.91.1-36.78c.06-20.23.24-36.92.4-37.08.17-.17.3 16.39.3 36.78 0 35.24-.1 38.7-1.08 37.16-.17-.26-.35-17.04-.4-37.28l-.08-36.8-.26 41.8c-.15 22.99-.29 70.82-.32 106.3L97.6 360h140.8l-.04-16.1c-.03-8.85-.16-18.48-.3-21.4-.14-2.92-.13-5.3.04-5.3.66 0 .3-3.56-.4-3.95-.38-.21-.55-.53-.38-.7.18-.18.45-.15.6.06.16.21.69.45 1.18.51 1.03.15 1.3-1.34.4-2.3-.33-.36-.34-.45-.03-.27.27.15.58-.08.73-.54.14-.45.43-.81.65-.81.22 0 .29.18.15.4-.14.22-.06.4.18.4.23 0 .42-.37.42-.82 0-.56-.16-.73-.5-.53-.34.2-.32.09.05-.37.33-.41.38-.68.12-.68-.24 0-.6.3-.8.67-.21.37-.65.7-.98.76-1.04.15-.28-1.41 1-2.08.66-.34 1.08-.43.94-.2-.14.23.1.38.56.34.53-.04.81-.34.81-.89 0-.72.2-.8 1.6-.67 1.4.14 1.6.05 1.6-.69 0-.78.44-1.05 1.4-.85.22.04-.05-.41-.6-1.01-.93-1.01-.94-1.06-.12-.63.48.25.97.3 1.09.1.11-.19.67-.26 1.22-.15.56.1 1.32-.05 1.69-.35.46-.38.58-.4.37-.05-.2.34-.03.5.53.5.53 0 .82-.26.82-.74 0-1.11 44.18-2.02 48.9-1l1.1.23V200.85c0-55.03-.14-100.03-.3-100-.89.14-1.3-.13-1.3-.85 0-.8-.27-.8-45.2-.8-40.67 0-45.2.06-45.2.62 0 .4.19.52.5.33.33-.2.31-.07-.06.38-.3.38-.43.81-.28.97.16.15.43.04.6-.25.26-.4.39-.37.59.16.21.55.37.59.85.19.42-.35.6-.36.6-.05 0 .69 84.03.64 84.8-.05.48-.43.48-.4.03.2-.5.67-2.96.7-43.5.7-23.65 0-43.18.1-43.42.25-.26.16-.32.09-.15-.19.16-.25.1-.46-.11-.46-.22 0-.38.52-.36 1.15.02.95.17 1.11.87.95.84-.2.84-.2.04.45l-.8.65.8-.25c.71-.22.7-.17-.1.42-1.2.9-1.16 1.83.06 1.83.52 0 1.06.28 1.2.62.13.36.06.52-.16.38-.23-.14-.4.22-.4.8 0 1.03.06 1.06 1.9.85 1.1-.13 1.57-.09 1.13.1-.54.21-.63.4-.3.6.26.17.65.19.87.05.22-.14.29.02.16.37-.27.68-1.76.16-1.76-.6 0-.23-.18-.3-.4-.17-.22.14-.4.52-.4.85 0 .33.17.5.37.37.2-.13.5-.05.63.18.14.23.02.37-.27.31-.35-.07-.57.4-.65 1.39-.11 1.29-.01 1.5.7 1.5.85 0 .95.26.83 2.1-.06.87.1 1.1.76 1.1.7 0 .83.25.83 1.64 0 1.34.12 1.6.63 1.4.35-.13.73-.24.85-.24s0-.25-.25-.56c-.36-.44-.36-.64.01-.87.33-.2.38-.12.16.24-.24.38-.15.46.33.27.4-.15.62-.06.56.23-.05.27.22.47.61.43.89-.07.9.4.02 1.11-.46.37-.58.39-.37.05.19-.31.07-.5-.33-.5-.43 0-.62.38-.62 1.24 0 1.5 1.24 3.23 1.98 2.77.4-.24.34-.41-.23-.73-.4-.23-.63-.53-.5-.67.14-.14.57.06.95.44.63.63.63.74.05 1.16-.39.28-.61 1-.58 1.85.05 1.39.17 1.47 2.28 1.63.43.03.4.16-.1.52-1.17.86-.9 4.33.31 4.1.8-.15.94-.04.82.6-.08.44.04 1.15.27 1.59.31.57.3.72-.01.53-.24-.16-.44-.09-.44.15 0 .23.36.42.8.42.73 0 1.1 1.28.85 2.9-.03.17.39.3.93.3.53 0 1.1.2 1.26.46.16.27.1.36-.13.2-.25-.15-.4.2-.37.91.03.64.14 1.16.25 1.15 1.15-.09 1.52.16 1.32.89-.19.72-.06.8 1.24.63 1.37-.17 2.12.16 1.58.7-.14.14-.5.06-.78-.18-.42-.35-.5-.14-.4 1.04.06.8.34 1.6.62 1.78.68.42.34 1.86-.4 1.68l-1.32-.28a2.47 2.47 0 0 1-1-.4c-.14-.14.1-.2.5-.12.43.08.85-.11.96-.42.14-.4-.04-.5-.66-.34-.8.21-1.08-.24-.9-1.4.03-.17-.31-.3-.75-.3s-.8-.27-.8-.6c0-.37-.38-.6-.99-.6-.71 0-.92.17-.76.6.13.33.04.6-.2.6-.25 0-.41-.13-.37-.3.05-.16-.12-.68-.38-1.15-.26-.46-.34-.97-.19-1.13.16-.16.11-.25-.11-.2-.98.2-1.4-.08-1.4-.92-.01-.73-.09-.79-.4-.3-.26.4-.39.43-.4.1 0-.62-1.45-.66-1.83-.06-.15.25-.02.6.28.8.38.24.18.34-.65.32-.66-.01-.97-.11-.7-.22.28-.12.5-.55.5-.97 0-.43-.22-.77-.5-.78-.34 0-.31-.12.09-.37.47-.3.36-.46-.53-.8-1.39-.53-1.86-.53-1.86-.02 0 .22.21.4.47.4.25 0 .35.12.2.26-.13.14-.56 0-.94-.3-.6-.5-.65-.48-.4.2.23.6.18.66-.26.3-.3-.25-.62-.37-.72-.27-.1.1-.2-.17-.24-.6-.03-.43.14-.9.38-1.04.26-.16.32-.09.15.19-.18.29.02.46.54.46.45 0 .82-.23.82-.51 0-.46-.49-.63-2.28-.78-.34-.03-.36-.26-.08-.78.22-.4.25-.72.08-.69-.9.15-1.32-.12-1.32-.82 0-.63-.33-.8-1.7-.9-1.37-.1-1.68-.26-1.58-.83.07-.4-.1-.66-.4-.6-.27.06-.57-.32-.64-.84-.13-.83-.31-.92-1.47-.73-1.41.23-2.28-.28-1.94-1.16.15-.4-.17-.52-1.21-.49-1.23.05-1.46.22-1.68 1.23-.2.91-.37 1.07-.72.69-.35-.37-.33-.54.06-.68.4-.15.41-.31.02-.78-.39-.47-.37-.66.09-.95.44-.27.26-.46-.74-.8-.95-.34-1.2-.6-.92-.94.29-.35.04-.5-.96-.57-.74-.05-1.48.12-1.64.38-.18.3-.12.37.17.19.25-.16.46-.1.46.14 0 .23-.18.42-.4.42-.22 0-.4.2-.4.42 0 .24.2.3.46.14.3-.18.35-.1.17.2-.23.37-.43.37-.88 0-.32-.27-.44-.6-.27-.72.67-.5.5-2.05-.28-2.54-.44-.27-.8-.83-.8-1.24 0-.63-.25-.72-1.59-.6-1.5.15-1.57.11-1.37-.85.18-.86.15-.9-.23-.31-.5.77-1.21.94-1.21.28 0-.24.18-.32.4-.18.22.14.4.06.4-.18 0-.23-.18-.42-.4-.42-.22 0-.4-.36-.4-.8 0-.87-.78-1.06-1.47-.36-.32.3-.52.3-.7 0-.16-.24-.46-.44-.68-.44-.22 0-.27.2-.11.46.17.28.1.36-.15.2-.24-.15-.36-.7-.27-1.2.16-.84.01-.94-1.42-1-1.15-.04-1.6.1-1.6.52 0 .92-.69 1.08-.92.21-.11-.43-.06-.7.11-.6.32.2.81-.68.81-1.42 0-.43-1.34-.5-1.74-.1-.63.63-1.66.36-1.71-.46-.04-.57.18-.84.7-.84.81 0 1 .44.34.77-.22.1-.18.15.1.1.93-.19.85-3.04-.08-3.04-.72 0-1-.41-.86-1.3.03-.17-.26-.3-.65-.31-.94-.02-2.5-1.36-2.5-2.15 0-.72-.83-.85-1.45-.23-.29.29-.36.04-.24-.8.14-.92.03-1.21-.47-1.21-.67 0-.77-.3-.65-2.1.06-.87-.1-1.1-.76-1.1-.56 0-.83-.26-.83-.8 0-.44-.2-.8-.42-.8-.24 0-.33.16-.2.36.12.2-.11.28-.52.17-.54-.14-.69-.46-.55-1.19.16-.8.05-.97-.56-.87-.52.1-.79-.14-.88-.77-.08-.58-.4-.9-.9-.9s-.77-.28-.77-.8c0-.8-.27-.8-34.4-.8H99.2v.82m51.33-.12c-9.06.06-24 .06-33.2 0-9.2-.06-1.79-.1 16.47-.1 18.26 0 25.79.04 16.73.1m127.17 0c-12.15.06-32.04.06-44.2 0-12.16-.06-2.21-.1 22.1-.1 24.31 0 34.26.04 22.1.1M135.1 102c23.41 0 32.8-.13 33.43-.45.86-.45.86-.44.1.3-.74.72-2 .75-33.66.75-18.1 0-32.83-.07-32.74-.16.09-.1-.05-.45-.31-.8-.4-.54-.39-.56.08-.14.44.4 7.64.5 33.1.5m32.9 3.36c0 1.01.2 1.4.8 1.56.44.11.8.5.8.84 0 .39.34.64.85.64.75 0 .79-.08.3-.7-.49-.62-.48-.64.1-.2.4.32.57.88.45 1.5-.16.81-.03 1 .65 1 .58 0 .85.25.85.8 0 .53.27.8.8.8s.8.27.8.8c0 .44.25.8.56.8.35 0 .67.62.84 1.6.16.94.5 1.6.8 1.6.3 0 .66.36.8.8.14.44.5.8.78.8.29 0 .62.36.74.8.11.44.47.8.8.8.32 0 .68.36.8.8.11.44.47.8.8.8.32 0 .68.36.8.8.16.6.54.8 1.6.8 1.05 0 1.44.2 1.6.8.11.44.5.8.84.8.35 0 .64.27.64.6 0 .43.44.6 1.6.6 1.33 0 1.6.13 1.6.8 0 .53.27.8.8.8s.8.27.8.8c0 .65.27.8 1.42.8.85 0 1.33-.16 1.18-.4-.14-.22.06-.4.43-.4.55 0 .58.1.17.6-.8.97-.18 1.8 1.39 1.8 1.14 0 1.41.15 1.41.8 0 .53.27.8.8.8s.8.27.8.8c0 .67.27.8 1.6.8s1.6.13 1.6.8c0 .52.27.8.75.8.42 0 .85.36.97.8.16.61.54.8 1.64.8 1.17 0 1.44.15 1.44.8 0 .53.27.8.8.8.44 0 .8.25.8.56 0 .6.84 1.04 2.03 1.04.42 0 .77.26.77.57 0 .54 1.1 1.13 1.86 1 .85-.16 1.34.08 1.34.63 0 .33.36.6.8.6.53 0 .8.27.8.8 0 .67.27.8 1.6.8s1.6.13 1.6.8c0 .53.27.8.8.8s.8.27.8.8.27.8.8.8.8.27.8.8c0 .65.27.8 1.4.8 1.01 0 1.4.18 1.4.64 0 .35.34.72.76.83.42.11.86.55.97.97.14.56.55.76 1.59.76 1.07 0 1.44.2 1.6.83.18.66.48.8 1.55.7l1.33-.13.11-3.9c.11-3.7.08-3.9-.7-3.9-.66 0-.81-.26-.81-1.4 0-1.13-.15-1.4-.8-1.4-.67 0-.8-.27-.8-1.6s-.13-1.6-.8-1.6c-.53 0-.8-.27-.8-.8s-.27-.8-.8-.8c-.67 0-.8-.27-.8-1.6 0-1.4-.11-1.6-.93-1.6-.87 0-.91-.12-.76-2.16.15-1.9.06-2.23-.68-2.63-.47-.25-.74-.63-.6-.85.4-.66-.2-2.36-.84-2.36-.42 0-.59-.45-.59-1.57 0-1.95-.32-2.83-1.04-2.83-.39 0-.56-.5-.56-1.6 0-1.33-.13-1.6-.8-1.6s-.8-.27-.8-1.6-.13-1.6-.8-1.6c-.7 0-.8-.27-.8-2.17 0-1.83-.13-2.22-.8-2.43-.6-.19-.8-.6-.8-1.63 0-1.1-.16-1.37-.8-1.37-.71 0-.8-.27-.8-2.4V104l42.2-.1 42.2-.1v193.8H275c-23.93 0-24.2 0-24.2.8 0 .7-.27.8-2.24.8-1.9 0-2.27.12-2.44.8-.16.6-.55.8-1.57.8-1.08 0-1.35.16-1.35.8 0 .53-.27.8-.8.8s-.8.27-.8.8-.27.8-.8.8-.8.27-.8.8-.27.8-.8.8c-.67 0-.8.27-.8 1.6 0 1.36-.13 1.6-.84 1.6-.74 0-.82.2-.7 1.52.13 1.31.03 1.52-.66 1.5-1-.02-1.5 40.09-.5 41.31.4.5.4.56 0 .32-.27-.16-.5-.1-.5.13s-.36.42-.8.42c-1.09 0-1.18 2.64-.1 2.92.38.1-29.5.2-66.4.23l-67.1.05V103.8l33.6.1 33.6.1v1.36m2.94-.43c.2-.2 1.06 1.5 1.06 2.1 0 .38-.65.11-1.6-.66l-1-.82 1 .21c.93.2.92.18-.1-.25-.6-.26-1.1-.62-1.1-.8 0-.19.34-.16.75.06.4.22.85.3.99.16m7.22 7.8c.42.7.57 2.47.21 2.69-.2.12-.37.04-.37-.2 0-.23-.39-.42-.86-.42h-.86l.84-.73c.65-.56.74-.85.39-1.2s-.35-.47-.01-.47c.25 0 .54.15.66.33m38.56 2.99.86.91-.89.05c-.49.02-.65-.05-.37-.16.41-.16.38-.37-.16-.96-.98-1.09-.47-.94.56.16m-31.62 5a.89.89 0 0 1-.8.78c-.43.03-.68-.15-.58-.42.1-.27.38-.44.63-.38.25.05.45-.08.45-.3 0-.22.08-.4.17-.4.1 0 .16.32.13.72m9.9 6.48c-.14.22-.52.4-.85.4-.33 0-.49-.18-.35-.4.14-.22.52-.4.85-.4.33 0 .49.18.35.4m2.95 1.1c-.13.84.1 1.32.51 1.06.28-.17.35-.1.19.16-.64 1.03-1.49-.1-1.08-1.42.08-.25.43-.07.38.2m27.1 6.43c-.12.18.13.88.54 1.56.6.98.63 1.21.17 1.15-.32-.05-.53-.2-.47-.33.06-.14-.31-.7-.83-1.24-.86-.93-.88-1.01-.2-1.19.4-.1.8-.2.86-.23.07-.03.04.1-.08.28m-13.74 3.47c-.2 1.07-.67 1.29-1.14.54-.15-.25.05-.7.46-1 .94-.69.9-.71.68.46m17.43 3.28c.6.6.6.65.02.43-.36-.14-.83-.07-1.05.15-.26.26-.48.17-.64-.25-.15-.38-.09-.55.15-.4.21.13.39.05.39-.19 0-.6.36-.52 1.13.26m-6.04 4.15c-.07.93-.02.93-.81.05-.6-.66-.6-.72.1-.77.53-.04.75.19.7.72m8.35.33c-.14.22-.55.3-.91.15-.58-.22-.57-.28.1-.53.9-.32 1.16-.2.8.38m-.23.82c.32.2.49.47.37.6-.12.11-.56-.05-.99-.37-.84-.64-.33-.82.62-.23m2.15 1.35c.14-.14.26-.16.26-.04s-.5.53-1.1.92c-.6.39-.97.56-.8.38.16-.17.09-.56-.16-.86-.36-.44-.3-.5.27-.27.55.21.64.14.38-.3-.28-.46-.23-.47.27-.06.34.27.73.38.88.23m.26 2.3c0 .23-.18.3-.4.17-.22-.14-.42.17-.45.68-.04.82-.06.83-.24.12a2.1 2.1 0 0 0-.66-1.1c-.25-.16.04-.29.65-.3.6 0 1.1.2 1.1.42M73.4 167.93c0 .63-.22 1.14-.48 1.14-.27 0-.4-.15-.28-.34.11-.18.02-.33-.22-.33-.6 0-.33-.95.38-1.27.33-.15.6-.29.6-.3v1.1m-.03 2.57a2.6 2.6 0 0 1-.72 1.2c-.31.2-.29.29.07.3.3 0 .42.18.28.4-.53.86-.95.32-.93-1.2.02-1.31.17-1.6.8-1.6s.73.18.5.9m.16 3.2a4.9 4.9 0 0 0-.52 1.17c0 .14-.17.41-.37.6-.22.19-.25.12-.08-.17.16-.28.11-.5-.1-.5-.44 0-.4-.74.08-1.5.61-.98 1.55-.6.99.4m-.23 6.5c.1.57 0 1.01-.25 1.03-.25.01-.09.18.35.37.53.23.6.35.2.37-.96.03-1.43-.49-1.51-1.67-.1-1.4.94-1.5 1.2-.1m-.01 3.33c.1.67-.02 1.14-.29 1.14-.24 0-.44-.51-.44-1.14 0-.62.12-1.13.28-1.13.15 0 .35.51.45 1.13m86.86 5.59c-.1.4-.56.95-1 1.23-.46.28-.7.32-.56.08.17-.28-.3-.43-1.36-.43-1.35 0-1.62.13-1.62.8s-.27.8-1.6.8c-1.3 0-1.6.14-1.6.75 0 .6-.29.73-1.5.7-1.28-.04-1.52.09-1.63.87-.1.7-.31.86-.9.67-.59-.19-.77-.05-.77.58 0 .66-.25.83-1.2.83-.76 0-1.37.29-1.7.8-.27.44-.7.8-.95.8-.43 0-1.13 2.35-.8 2.68.09.09.4-.07.7-.36.7-.66 2.04-.79 1.84-.18-.09.25-.32.47-.52.5-2.03.16-3.37.73-3.37 1.4 0 .5-.28.76-.84.76-.74 0-.83.2-.7 1.6.15 1.44.07 1.6-.75 1.6-.8 0-.91.2-.91 1.6 0 1.33-.13 1.6-.8 1.6-.7 0-.8.27-.8 2.23 0 2.11.04 2.21.9 1.98.88-.24.88-.23.12.37-.56.45-.85.5-1.06.16-.15-.25-.57-.34-.93-.2-.57.21-.63 1.46-.54 11.75l.11 11.51.9.13c.6.08.9-.08.9-.48 0-.33.16-.7.36-.83.2-.12.27.14.15.59-.11.44-.37.9-.56 1.02-1.44.9.03 4.97 1.79 4.97.05 0 .06-.5.02-1.1-.03-.63-.27-1.05-.54-.99-.26.06-.36-.08-.21-.32.18-.3.42-.3.8.01.62.52.51 2.5-.15 2.71-.88.3-.57 3.69.34 3.69.67 0 .8.27.8 1.6s.13 1.6.8 1.6c.53 0 .8.27.8.8 0 .44.25.8.55.8.3 0 .66.55.8 1.23.33 1.69 2.18 3.57 3.5 3.57.72 0 1.12.25 1.27.8.11.44.5.8.84.8.35 0 .64.27.64.6 0 .33.36.6.8.6.53 0 .8.27.8.8 0 .67.27.8 1.6.8s1.6.13 1.6.8c0 .71.27.8 2.4.8s2.4.09 2.4.8c0 .78.27.8 10 .8s10-.02 10-.8c0-.71.27-.8 2.45-.8 2.32 0 2.44-.05 2.27-.9-.16-.83-.05-.9 1.38-.76 1.3.13 1.59.02 1.77-.7.13-.48.55-.84.98-.84.41 0 .75-.27.75-.6 0-.33.29-.6.64-.6.35 0 .72-.34.83-.76.11-.42.56-.86 1-.98.48-.12.7-.4.53-.66-.17-.27.06-.54.57-.68.5-.13.8-.49.74-.87-.07-.41.22-.7.79-.78.58-.08.9-.4.9-.9s.28-.77.8-.77c.59 0 .8-.27.8-1 0-.64-.22-1-.62-1-.37 0-.51.19-.34.46.2.32.1.35-.28.11-.92-.57-1.6-.54-1.83.08-.21.54-2.24 1.83-2.58 1.63-.08-.04-.11-.01-.06.07.24.43-.77 1.6-1.23 1.42-.29-.11-.56.07-.6.41l-.13 1.2c-.05.43-.25.48-.8.18-.4-.22-.72-.25-.69-.08.18 1.05-.16 1.32-1.64 1.32-1.33 0-1.6.13-1.6.8s-.27.8-1.6.8c-1.53 0-1.6.05-1.6 1.28 0 1-.1 1.17-.48.8-1.07-1.07-3.92-.6-3.92.65 0 1.42.31 1.75 1.22 1.26.56-.3.69-.24.6.31-.05.39-.4.76-.76.83-.68.13-2.21-1.1-1.86-1.5.11-.13-2.81-.24-6.5-.26-3.67-.01-6.6.06-6.5.16 1.17 1.17-1.49 1.97-2.9.87-.55-.44-.83-.8-.6-.8.21 0 .3-.45.2-1-.13-.65-.46-1-.95-1-.48 0-.75-.28-.75-.8 0-.67-.27-.8-1.6-.8s-1.6-.13-1.6-.8c0-.47-.27-.8-.65-.8-.56 0-.57.1-.1.7.44.57.37.56-.36-.06-.49-.42-.89-.64-.89-.49 0 .15-.35.09-.78-.14-.48-.26-.7-.66-.56-1.03.13-.34.08-.58-.11-.55-.93.17-1.69-.09-1.9-.65-.14-.36-.07-.52.16-.38.21.14.39.06.39-.18 0-.23-.45-.42-1-.42-1.22 0-1.23.15-.14 1.69l.86 1.2-.86-.46c-.47-.25-.86-.63-.86-.83 0-.2-.31-.27-.7-.15-.54.18-.58.14-.15-.17.3-.22.42-.6.25-.88-.23-.37-.38-.36-.66.06-.28.43-.47.38-.97-.26-.33-.44-.69-.75-.79-.7-.56.3-.27-.49.32-.85.56-.36.81-.27 1.32.45.71 1.02 1.59 1.22 1.23.28-.14-.36-.07-.52.16-.38.21.14.39.06.39-.18 0-.23-.36-.42-.8-.42-.55 0-.8-.27-.8-.85 0-.65-.19-.8-.8-.63-.71.18-.8 0-.8-1.56 0-1.32-.15-1.76-.62-1.76-.34 0-1-.36-1.47-.8-.47-.44-1.08-.8-1.34-.8-.27 0-.58-.25-.7-.56-.15-.38.02-.49.56-.35.44.12.77 0 .77-.27 0-.26-.17-.36-.37-.24-.2.13-.5.05-.63-.18-.14-.23-.02-.37.27-.31.34.07.58-.38.66-1.24.11-1.2.03-1.33-.7-1.14-.7.18-.83.03-.83-.97 0-.83-.15-1.1-.5-.9-.4.22-.4.17 0-.26.88-.95.65-4.38-.3-4.38-.67 0-.8-.28-.85-1.7l-.18-6.25c-.14-4.7-.53-6.56-.62-2.92-.09 3.5-.13 3.8-.65 3.97-.44.15-.48-.75-.1-1.9.04-.11.04-.95 0-1.86-.04-1.3.14-1.79.81-2.27.73-.5.85-.91.73-2.44-.13-1.69-.07-1.83.78-1.83.85 0 .91-.15.8-1.9-.08-1.32-.28-1.87-.65-1.79-.3.06-.41-.08-.27-.3a.5.5 0 0 1 .7-.15c.28.17.35-.04.2-.6-.25-.96.7-2.23 1.37-1.82.23.15.37-.15.32-.7-.13-1.53-.02-1.94.53-1.94.28 0 .55-.53.6-1.2.05-.66-.1-1.2-.34-1.2-.6 0-1.6-1.05-1.3-1.35.13-.13.5.08.81.46.31.38.44.43.27.12-.21-.41-.11-.5.37-.31.44.17.67.05.67-.33 0-.33.17-.59.39-.59.21 0 .28.27.16.6-.13.33-.04.6.2.6.25 0 .45-.33.45-.73 0-.87 1.98-2.7 2.74-2.54.3.07.43-.06.3-.28-.14-.22.22-.88.81-1.46.86-.86.96-1.14.5-1.43-.34-.23-.05-.26.8-.1 1.29.25 1.36.2 1.18-.72-.17-.88-.07-.96.94-.81.84.12 1.13 0 1.13-.49 0-.35-.21-.64-.47-.64-.25 0-.33-.13-.17-.3.16-.16.64.16 1.06.7.53.7.77.81.77.38 0-.34-.2-.83-.46-1.09-.35-.35-.11-.4 1-.22.97.15 1.47.08 1.47-.22 0-.25.2-.45.42-.45.24 0 .32.18.18.4-.14.22-.06.4.18.4.23 0 .42-.36.42-.8 0-.78 1.28-1.07 3.7-.82.41.04.7-.2.7-.58 0-.36.27-.93.6-1.26.53-.53.74-.44.68.28-.02.12 3.01.22 6.72.22s6.66-.15 6.55-.32c-.1-.18-.02-.32.2-.32.55 0 1.7 1.2 1.48 1.55-.1.16.54.34 1.43.4 1.6.09 2.93-.53 2.53-1.17-.11-.18.16-.3.62-.27.8.06.8.08.07.68-1.04.84-.6 2.17.78 2.33 1.2.14 1.93-.63 1.1-1.16-.4-.24-.2-.35.64-.35.66 0 1.02.13.8.3-.7.51-.77 2.64-.07 2.37.6-.23 1.26.69 1.13 1.55-.04.24.16.45.44.47.27.03.95.18 1.5.34.94.28.96.25.4-.45-.46-.57-.47-.67-.04-.4.44.26.5.1.3-.83-.23-.98-.2-1.06.23-.53.28.35.78.75 1.11.87.5.2.48.24-.08.27-.37.02-.8.23-.95.47-.18.3 0 .36.58.18.7-.22.85-.11.85.63 0 .88.01.88.6.13.58-.74.6-.71.37.42-.18.92-.13 1.06.2.6.35-.5.42-.45.42.28 0 .48-.2 1-.45 1.16-.26.16-.36.11-.22-.1.13-.22-.3-.71-.96-1.1-.98-.58-1.11-.82-.72-1.28.38-.47.35-.53-.18-.33-.91.35-.83 1.4.14 1.65.43.12.7.37.57.57-.13.2-.4.26-.6.13-.2-.12-.37-.04-.37.2 0 .23.36.42.8.42.55 0 .8.27.8.87 0 .47.11.75.25.61.53-.53 1.68.5 1.47 1.31-.12.46-.02.81.23.81s.45.2.45.42c0 .24-.18.32-.4.18-.22-.14-.4-.06-.4.18 0 .23.45.42 1 .42.62 0 1-.23 1-.6 0-.33-.18-.6-.4-.6-.22 0-.4-.28-.4-.63 0-.56.07-.56.6-.03.6.6.7 2.77.12 2.4-.61-.37-.31 1.12.35 1.79.63.63.66.62.45-.19-.12-.47-.07-1.1.12-1.4.26-.4.35-.4.35-.04 0 .27.28.5.61.5.42 0 .6-.42.6-1.4 0-1.13-.15-1.4-.8-1.4-.67 0-.8-.27-.8-1.6s-.13-1.6-.8-1.6c-.65 0-.8-.27-.8-1.44 0-1.1-.19-1.48-.8-1.64-.44-.12-.8-.39-.8-.6 0-.86-2.43-2.8-3.24-2.6-.59.16-.9-.04-1.17-.75-.2-.53-.64-.97-.98-.97a.6.6 0 0 1-.61-.6c0-.43-.44-.6-1.6-.6-1.35 0-1.6-.13-1.6-.83 0-.73-.22-.82-1.9-.76-2.8.1-2.9.06-2.9-.81 0-.75-.27-.8-4.03-.8-3.97 0-4.02.01-3.8.9l.23.9-.46-.9c-.5-.97-1.75-1.21-2.08-.4-.16.4-.2.4-.23 0-.06-.9-8.06-.69-8.3.22m36.14-.45c-.74.73-.28 7 .53 7.21.68.18.8.55.8 2.4 0 1.84.13 2.23.78 2.4.56.14.81.61.9 1.66.15 1.85 1.75 2.22 1.68.4-.06-1.36.83-1.1.95.27.05.6-.11.95-.41.89-.34-.07-.54.63-.62 2.2-.1 2.1-.04 2.3.7 2.3.69 0 .82.25.82 1.6 0 1.33.13 1.6.8 1.6.71 0 .8.27.8 2.4s.09 2.4.8 2.4c.66 0 .8.27.8 1.57 0 1.9 1.04 2.28 3.1 1.1 1.47-.85 1.69-1.26.5-.95-.85.22-.95-.09-.8-2.28.06-.9-.06-1.1-.56-.9-.71.26-.75.1-.68-2.64.03-1.12-.13-1.9-.38-1.9-.23 0-.3.2-.16.43.15.25-.06.22-.52-.06-.5-.31-.72-.78-.6-1.25.13-.47.01-.71-.3-.64a.52.52 0 0 1-.62-.39c-.07-.28-.03-.32.08-.1.4.79.94-.04.94-1.41 0-.99-.18-1.38-.63-1.38-.34 0-.9-.27-1.23-.6-.33-.33-.4-.6-.17-.6.24 0 .43-.45.43-1 0-.73-.21-1-.8-1-.82 0-1-.84-.81-3.7.05-.78-.12-1.1-.59-1.1-.36 0-.93-.27-1.26-.6-.33-.33-.44-.6-.25-.6s.36-.4.38-.9c.03-.5-.04-.67-.15-.38-.16.42-.31.42-.84 0-.53-.44-.58-.43-.28.08.3.52.26.53-.32.05-.44-.36-.68-.4-.68-.1 0 .25-.18.45-.4.45-.22 0-.33-.4-.25-.9.1-.6.38-.86.83-.77.46.08.64-.1.55-.53-.07-.35-.28-.59-.46-.52-.18.06-.5-.2-.72-.59-.22-.39-.56-.61-.75-.5a.4.4 0 0 1-.55-.11c-.27-.44 2.12-1.85 2.48-1.46.15.16.04.37-.23.47-.28.1-.4.36-.26.57.14.22.5.03.82-.43.32-.46.77-.83 1-.83.21 0 .11.28-.24.63-.67.68-.46 1.56.27 1.12.26-.17.32-.09.14.2-.22.36-.44.37-.83.05-.34-.28-.62-.3-.77-.05-.13.22-.1.47.06.55.73.37 10.91.34 10.91-.04 0-.74-.48-1.66-.78-1.47-.16.1-.29-.09-.29-.4 0-1.72 1.4.65 1.55 2.63.06.77.32 1.04 1.06 1.1l.98.08-.86-.75c-1.1-.95-1.08-1.15.1-1.15.72 0 .91.17.74.62-.16.4-.07.51.23.32.63-.39.6.37-.04 1.03-.29.3-.55.96-.58 1.49-.05.72.04.85.39.5.25-.25.64-.46.87-.46.22 0 0 .28-.48.62-1.02.72-1.23 2.58-.29 2.58.33 0 .6.28.6.62 0 .35.17.52.37.4.2-.13.48-.07.6.13s-.04.47-.37.6c-.98.37-.8 3.05.2 3.05.83 0 .93.26.81 2.12-.08 1.23 1.23 1.4 2.51.35.41-.34.7-.37.87-.09.14.23.02.42-.27.43-.4 0-.39.09.05.36.43.28.34.39-.4.5-1.01.14-1.75 3.93-.77 3.93.37 0 .55-.67.5-1.89 0-.36.2-.38.75-.09.41.23.75.6.75.82 0 .22.2.28.44.13.3-.18.36 0 .18.58-.22.7-.14.8.45.6.47-.16.37.02-.27.5-.55.4-1.13.7-1.3.65-.17-.06-.3.72-.3 1.73v1.83l1.3-.22c.71-.13 1.07-.13.8 0-.68.3-.64 1.5.03 1.24.3-.11.54.06.54.38 0 .31-.21.5-.47.4-.3-.12-.5.37-.53 1.38-.05 1.31.06 1.56.73 1.56.62 0 .8.27.8 1.2 0 .69.21 1.2.5 1.2.34.01.3.15-.1.44-.5.36-.48.4.13.2.4-.13.81-.24.9-.24.1 0 .17-.2.17-.42 0-.24-.17-.32-.37-.2a.44.44 0 0 1-.6-.13c-.12-.2.04-.47.37-.6.65-.25.71-.05.77 2.35.02 1.33.16 1.58.77 1.47.47-.08.64.04.46.33-.16.25-.53.36-.83.24-.39-.15-.53.07-.48.72.06.7.32.94 1.03.94.77 0 .9-.16.73-.85-.2-.83-.2-.83.53.05.41.5.94.9 1.18.9s.44.15.44.34c0 .18-.51.3-1.14.26-1.12-.06-1.14-.02-1.16 2.07-.01 1.6.13 2.13.56 2.13.35 0 .47-.2.3-.5-.21-.38-.16-.4.23-.04.27.26.5 1.3.52 2.3.02 1.2.2 1.84.53 1.84.28 0 .62.17.75.38.13.2-.13.3-.58.22-.44-.08-.81.02-.81.22 0 .21.36.38.8.38.82 0 .86.13.89 2.83 0 .95.2 1.44.56 1.44.3 0 .55-.33.55-.74 0-.4.2-.73.43-.73.25 0 .31.34.16.83-.23.74-.12.81 1.07.7 1.28-.12 2.37-1.93 1.17-1.93a.43.43 0 0 1-.43-.42c0-.24.2-.3.44-.15.3.18.36-.03.18-.68-.24-.87-.21-.9.3-.25.85 1.05 1.55.86 1.47-.4-.12-1.84-.02-2.1.8-2.1.68 0 .8-.25.74-1.6-.06-1.7-.25-1.9-1.1-1.1-.37.33-.46.34-.28.03.14-.26-.05-.56-.44-.67-.6-.17-.58-.2.09-.19 1.55.04 1.8-.08 1.8-.83 0-.59.2-.71.86-.54.83.22.85.14.65-2.68-.12-1.6-.1-2.73.04-2.52.14.2.56.38.95.37.8 0 .93-1.08.23-1.78-.37-.37-.19-.54.8-.73 1.4-.28 1.87-2.56.77-3.74-.4-.43-.4-.48 0-.25.3.17.5.04.5-.35 0-.35.34-.62.8-.62.94 0 1.14-1.88.3-2.78-.4-.43-.4-.48.06-.22.43.25.51.08.35-.74-.18-.97.07-1.25.99-1.1.16.02.3-.68.3-1.56 0-1.33.13-1.6.8-1.6.7 0 .8-.27.8-2.2 0-1.93.1-2.2.8-2.2.44 0 .8-.2.8-.42 0-.24-.18-.32-.4-.18-.22.14-.4.06-.4-.18 0-.23.18-.42.4-.42.57 0 .5-2.14-.1-2.78-.3-.32-.32-.44-.04-.28.25.14.56-.01.68-.34.13-.33.5-.48.85-.35.5.2.61-.13.61-1.8 0-1.78-.1-2.05-.8-2.05-.9 0-1.05-.76-.3-1.63.28-.32.46-.5.4-.41-.08.15 1.8 1.24 2.15 1.24.08 0 .15-.72.15-1.6 0-1.36.13-1.6.85-1.6.66 0 .8-.2.67-.9l-.17-.9 5.52.12c3.4.07 5.53-.03 5.53-.27 0-.73-.48-1.64-.78-1.46-.16.1-.29-.09-.29-.4 0-1.05.6-.62 1.12.79.27.76.64 1.29.82 1.18.18-.12.33-.02.33.22 0 .23-.55.42-1.23.42-1.15 0-1.22.09-1.1 1.3.1 1.1-.01 1.32-.77 1.43-.5.07-.9.3-.9.52 0 .22.18.29.4.15.22-.14.4-.06.4.18 0 .23-.18.42-.4.42-.23 0-.36.82-.3 1.9.09 1.7.2 1.9 1.02 1.85.5-.03.8.06.66.2a.91.91 0 0 1-.51.26c-.15 0-.5.15-.78.33-.32.2-.47.14-.4-.16.06-.26-.31-.54-.83-.63-.88-.15-.93-.05-.8 1.45.15 1.44.07 1.6-.75 1.6-.57 0-.91.24-.91.65 0 .56.1.57.7.1.65-.5.66-.48.08.26-.7.9-1.03 2.99-.47 2.99.2 0 .36.23.36.52 0 .33-.38.47-1.05.37-.87-.13-1.05 0-1.12.86-.06.73.07.96.47.8.3-.1.67-.01.81.22.16.25.02.33-.36.18-.36-.14-.71.03-.86.4-.13.36-.6.65-1.03.65-.66 0-.78.25-.72 1.5.12 2.58.03 2.9-.81 2.9-.52 0-.8.27-.8.76 0 .51.24.73.7.65.38-.06.66-.31.6-.55-.05-.24.18-.33.5-.2.33.12.61.34.63.48l.16.9c.06.34-.13.63-.43.63-.31 0-.56-.2-.57-.44 0-.23-.18-.16-.39.17-.27.43-.2.74.28 1.1.37.28.52.5.33.5-.2 0-.65-.28-1.03-.61-.61-.56-.67-.54-.62.3.03.59.28.87.68.8.35-.05.63.18.63.5 0 .7-.9.82-1.28.2-.18-.3-.42-.3-.79 0-.38.33-.57.3-.7-.07-.1-.29-.2.34-.23 1.4-.03 1.4.09 1.83.44 1.63.27-.15.35-.13.18.06-.45.5-1.99.67-1.7.2.15-.23.07-.41-.17-.41-.23 0-.42.54-.42 1.2 0 .69.21 1.2.5 1.2.33.01.3.14-.1.39-.5.32-.51.45-.04.9.42.38.49.38.28.01-.16-.28-.18-.5-.05-.5.5 0 .9 1.81.52 2.29-.3.38-.64.36-1.55-.11-1.1-.57-1.16-.56-1.16.21 0 .44.2.81.43.81.23 0 .16.27-.17.6-.33.33-.8.6-1.03.6-.24 0-.43.2-.43.42 0 .24.18.32.4.18.22-.14.4-.06.4.18 0 .23-.14.42-.31.42-.48 0-.56 2.31-.09 2.6.23.14.3.42.18.63-.12.2.19.38.7.4.86.02.87.05.12.34-.44.18-.86.17-.93-.02a.6.6 0 0 0-.53-.35c-.21 0-.28.18-.14.4.14.22-.12.4-.58.4-.65 0-.82.25-.82 1.2 0 .93-.18 1.2-.8 1.2-.7 0-.8.27-.8 2.22 0 1.39.15 2.13.4 1.98.22-.14.35.07.3.48-.07.4-.3.72-.5.72-.22 0-.36-.14-.3-.3.06-.16-.26-.3-.7-.3-.44 0-.78.13-.75.3.23 1.46-.12 2.5-.85 2.5-.67 0-.8.27-.8 1.6 0 .88.18 1.6.4 1.6.22 0 .4.2.4.42 0 .24-.18.32-.4.18-.22-.14-.4.03-.4.38s-.34.62-.8.62c-.67 0-.8.27-.8 1.6 0 1.35-.13 1.6-.83 1.6-.66 0-.81.23-.76 1.1.12 1.73.03 2.03-.6 2.17-.4.09-.26.29.43.6.86.4 1 .4.81-.08-.32-.85.33-1.04 1.2-.34.66.54.66.59.05.4-.8-.25-.92.17-.25.84.34.34.26.42-.3.33-.41-.06-.94.03-1.18.22-.23.18-2.57.4-5.2.46-4.37.12-4.22.13 1.73.21l6.5.09V260c0-1.1.17-1.6.56-1.6.71 0 1.04-.88 1.04-2.79 0-1.2.17-1.56.83-1.73.58-.16.81-.5.76-1.15-.13-1.57-.01-1.93.64-1.93.49 0 .62-.4.56-1.7-.1-2.83-.04-3.1.81-3.1.67 0 .8-.27.8-1.6s.13-1.6.8-1.6c.7 0 .8-.27.8-2.2 0-1.93.1-2.2.8-2.2.71 0 .8-.27.8-2.4s.09-2.4.8-2.4c.66 0 .8-.27.8-1.55 0-1.22.17-1.6.8-1.77.68-.17.8-.54.8-2.44 0-1.97.1-2.24.8-2.24.65 0 .8-.27.8-1.39 0-.97.24-1.5.8-1.81.63-.34.8-.84.8-2.37 0-1.6.14-1.97.8-2.15.61-.16.8-.54.8-1.64 0-.96.19-1.44.55-1.44.66 0 1.04-1.21 1.05-3.3 0-1.1.17-1.5.63-1.5.35 0 .59-.3.55-.7-.15-1.49.05-2.06.82-2.3.67-.21.8-.6.8-2.43 0-1.9.1-2.17.8-2.17.67 0 .8-.27.8-1.6s.13-1.6.8-1.6c.71 0 .8-.27.8-2.4s.09-2.4.8-2.4c.73 0 .8-.27.8-3v-3H257c-7.53 0-7.8.03-7.8.8 0 .53-.27.8-.8.8-.52 0-.8.27-.8.75 0 .42-.36.85-.8.97-.66.17-.8.54-.8 2.08 0 1.45-.2 2.03-.88 2.59-.78.63-.84.87-.47 2.08.42 1.35 0 2.33-.99 2.33-.48 0-.86 1-.86 2.23 0 .6-.23.97-.6.97-.47 0-.6.53-.6 2.4 0 2.13-.09 2.4-.8 2.4-.7 0-.8.27-.8 2.2 0 1.93-.1 2.2-.8 2.2-.71 0-.8.27-.8 2.4 0 2.18-.08 2.4-.85 2.4-.79 0-.84.16-.66 2.1.1 1.16.12 1.88.02 1.6-.57-1.6-1.71-.45-1.71 1.74 0 1.9-.12 2.27-.8 2.44-.68.18-.8.55-.8 2.37 0 1.88-.1 2.15-.8 2.15-.66 0-.8.27-.8 1.55 0 1.22-.17 1.6-.8 1.77-.44.11-.8.5-.8.84 0 .37-.34.64-.8.64-.67 0-.8-.27-.8-1.6s-.13-1.6-.8-1.6c-.7 0-.8-.27-.8-2.21 0-1.92-.12-2.26-.88-2.54-.77-.29-.87-.58-.77-2.39.09-1.65-.02-2.06-.52-2.06-.46 0-.63-.4-.63-1.5-.01-2.09-.4-3.3-1.05-3.3-.36 0-.55-.48-.55-1.44 0-1.1-.19-1.48-.8-1.64-.68-.18-.8-.55-.8-2.4 0-1.86-.12-2.23-.8-2.4-.68-.18-.8-.55-.8-2.37 0-1.88-.1-2.15-.8-2.15-.7 0-.8-.27-.8-2.24 0-1.9-.12-2.27-.8-2.44-.68-.18-.8-.55-.8-2.4 0-1.86-.12-2.23-.8-2.4-.6-.16-.8-.55-.8-1.54 0-.98-.21-1.4-.8-1.58-.6-.19-.8-.6-.8-1.63 0-1.1-.16-1.37-.8-1.37-.53 0-.8-.27-.8-.8 0-.8-14.55-1.31-15.33-.53m-34.57 1.28c.15.57.02.7-.53.56-.58-.15-.63-.3-.25-.74.6-.69.55-.7.78.18m17.22 1c.16-.16.28.12.28.61 0 .87-.02.87-.7.17-.38-.4-.97-.97-1.3-1.26-.33-.3-.38-.41-.1-.28.3.16.51-.03.53-.47.03-.51.18-.4.53.39.27.61.61.98.76.83m-23.19 1.63c.12.31-.07.81-.43 1.1-.47.39-.57.4-.35.03.2-.32.04-.52-.43-.55-.67-.04-.67-.06-.02-.23.38-.1.7-.34.7-.55 0-.55.29-.45.53.2m105.72 4.7c-.03.47-.32.95-.65 1.05-.47.14-.5.07-.13-.32.26-.27.37-.75.26-1.05-.12-.3-.04-.55.17-.55.22 0 .37.39.34.87m-99.33 4.33c-.03.45.06.74.21.65.16-.1.51.09.8.4.43.46.35.55-.47.55-.54 0-1.07.23-1.19.5-.1.28-.21.1-.23-.4-.03-.93-2.43-1.42-2.43-.5 0 .22.22.4.5.4.32.01.35.12.09.3-.48.35-.52 1.1-.09 1.53.52.53.32.97-.44.97-.8 0-2.06 1.18-2.06 1.93 0 .26-.2.47-.42.47-.24 0-.3-.2-.14-.46.17-.28.1-.35-.15-.2-.24.16-.6 0-.78-.34-.55-.98-2.91-.36-2.91.77 0 .48.22 1.11.5 1.4.37.41.38.48.01.27-.3-.17-.58.1-.75.76-.24.96-.29.98-.82.31-.52-.66-.56-.64-.45.29.06.55.38 1.23.71 1.5.52.44.5.47-.1.26-.55-.2-.7-.02-.7.8 0 .77-.2 1.04-.8 1.04-.93 0-1.16 2.28-.32 3.12.37.37.37.48 0 .48s-.48 2.24-.46 9.2c.02 8.84.05 9.2.8 9.2.62 0 .78.28.78 1.32 0 .73.22 1.56.5 1.86.4.43.4.48 0 .26-.33-.2-.5 0-.5.54 0 .55.26.82.8.82.46 0 .8.27.8.63 0 .49.26.58 1.12.39.83-.19 1.32-.04 1.84.54.4.43.97.69 1.28.57.3-.12.56 0 .56.25 0 .26-.21.34-.47.18-.32-.2-.38-.06-.18.46.16.42.16.63 0 .47-.15-.16-.53-.07-.84.18-.43.36-.53.34-.43-.1.06-.31.3-.7.52-.86.25-.2.24-.3-.05-.3-.25 0-.75.44-1.11.99-.63.95-.62 1 .15 1 .54 0 .81.26.81.8 0 .47.27.8.65.8.56 0 .57-.1.1-.7-.51-.67-.5-.67.29 0 .45.38 1.12.7 1.5.7.38 0 .66.32.66.76 0 .63.27.75 1.6.7 1.53-.06 1.84.22 1.65 1.44-.03.16.23.3.57.3.4 0 .52-.19.33-.5-.23-.38-.17-.4.27-.06.36.28 2.52.45 5.58.45s5.22-.17 5.58-.44c.44-.34.5-.33.27.05-.2.32-.05.5.4.5.37 0 .57-.1.44-.24-.13-.13-.08-.67.13-1.2.21-.57.21-.96 0-.96-.2 0-.44.31-.54.7-.14.53-.2.48-.23-.2-.05-.94.23-1.07 1.35-.64.53.2.56.32.13.6-.34.23.01.32 1 .26 1.48-.09 1.53-.13 1.3-1.3-.17-.9-.12-1.06.18-.62.35.52.51.47 1.16-.3.42-.5 1.04-.9 1.4-.9.36 0 .63-.34.63-.8 0-.52.27-.8.75-.8.56 0 .83-.39 1.03-1.44.25-1.34.31-1.39.84-.7.52.69.55.67.48-.37-.06-.8-.25-1.05-.69-.9-.37.13-.3-.02.17-.39.42-.33 1.1-.6 1.5-.6.99 0 1-2.6.01-3.54-.39-.36-.53-.53-.32-.36.61.47 1.03.35 1.03-.3 0-.33.35-.6.77-.6.43 0 1.04-.27 1.37-.6.33-.33.7-.6.82-.6s.11.27-.01.6c-.13.33-.05.6.17.6.23 0 .5-.22.62-.5.16-.4.2-.4.23 0 .02.28.22.5.45.5.24 0 .32-.18.18-.4-.14-.22-.06-.4.18-.4.23 0 .42.18.42.4 0 .22.27.4.6.4.34 0 .6.36.6.8 0 .9 2.3 1.06 2.9.22.19-.28.29-.25.3.08 0 .27.27.5.6.5.33 0 .6.36.6.8 0 .53-.27.8-.79.8-.69 0-.78.26-.73 2.13.06 2.22-.27 3.25-.92 2.85-.2-.13-.35-.1-.32.09.25 1.45-.1 2.53-.84 2.53-.44 0-.8.2-.8.42 0 .24.18.32.4.18.22-.14.4-.06.4.18 0 .23-.15.42-.33.42-.19 0-.34.27-.34.6 0 .41.42.6 1.34.6.73 0 1.33-.18 1.33-.4 0-.22.36-.4.8-.4.67 0 .8-.27.8-1.6s.13-1.6.8-1.6c.65 0 .8-.27.8-1.44 0-1.1.19-1.48.81-1.65.76-.2.81-.48.7-3.86l-.11-3.65-3.1-.12c-2.77-.1-3.1-.2-3.1-.9 0-.68-.28-.78-2.24-.78-1.91 0-2.27-.12-2.45-.82-.2-.74-.48-.8-3.06-.7l-2.85.12-.12 3.06c-.1 2.64-.22 3.08-.9 3.26-.66.17-.78.56-.78 2.44 0 1.97-.1 2.24-.8 2.24-.44 0-.8.25-.8.55 0 .3-.38.66-.84.78-.63.16-.77.41-.57 1.04.22.7.1.81-.66.73-.67-.07-.92.1-.87.6.04.56-.27.7-1.5.7-1.3 0-1.56.14-1.56.8 0 .76-.27.8-5.6.8s-5.6-.04-5.6-.8c0-.67-.27-.8-1.6-.8-1.36 0-1.6-.13-1.6-.85 0-.65-.19-.8-.8-.63-.6.15-.8 0-.8-.56 0-.42-.27-.76-.6-.76-.33 0-.6-.29-.6-.64 0-.35-.36-.73-.8-.84-.5-.14-.8-.55-.8-1.13 0-1.34-.4-2.19-1.04-2.19-.39 0-.56-.5-.56-1.6 0-1.33-.13-1.6-.8-1.6-.78 0-.8-.27-.8-9.4 0-9.26.01-9.4.83-9.4.78 0 .83-.19.7-2.53-.13-2.43-.1-2.52.77-2.35.7.14.9-.01.9-.67 0-.47.26-.85.57-.85.32 0 .69-.36.83-.8.14-.44.51-.8.83-.8.31 0 .57-.25.57-.55 0-.3.36-.65.8-.77.44-.11.8-.5.8-.84 0-.41.35-.64.97-.64 1.38 0 2.23-.4 2.23-1.04 0-1.03 12.27-.8 12.6.24.14.44.47.8.73.8.59.02 2.27 1.76 2.27 2.36 0 .24.36.44.8.44.53 0 .8.27.8.8s.27.8.8.8c.7 0 .8.27.8 2.24 0 1.88.12 2.27.78 2.44.56.14.81.61.9 1.66.15 1.82 3.98 2.56 4.51.88.24-.73.6-.82 3.28-.82 3.02 0 3.02 0 2.83-1.01-.1-.55 0-1.12.21-1.26.24-.15.3-.06.13.2-.2.34.4.47 2.1.47h2.4l.02-3.8.03-3.81-1.1.08c-.62.05-1.38-.07-1.7-.26-.32-.19-.14.17.41.79.89 1 .91 1.1.2.86l-.8-.26.8.65c.79.64.79.65-.1.44-.62-.15-.9-.03-.9.37 0 .32.16.49.36.36.2-.12.16.23-.1.78-.4.87-.71 1-2.56 1-1.6 0-2.1.14-2.1.6 0 .4-.4.6-1.25.6-1.07 0-1.18.09-.74.6.42.52.4.58-.15.37-.37-.14-.66-.42-.66-.61 0-.2-.45-.36-1-.36-.62 0-1-.23-1-.6 0-.33-.36-.6-.8-.6-.8 0-.98-.59-.83-2.6.05-.76.02-.76-.5-.1-.67.84-1.05-.03-1.06-2.36 0-1.1-.17-1.28-1.4-1.51-1.19-.22-1.42-.46-1.64-1.65-.26-1.36-.3-1.4-2-1.26-.94.07-1.63-.02-1.52-.2.1-.17-.27-.28-.83-.23-1.2.1-1.25.25-.32.95.64.47.62.5-.2.3-.56-.15-.9-.54-.9-1.03 0-.52.2-.72.56-.58.31.12.9-.03 1.3-.33.63-.46-.37-.54-6.87-.58-7.4-.04-7.62-.02-7.68.78m7.7 1.3c1.57.16 1.57.17-.31.23-1.57.06-1.9-.05-1.9-.63.01-.46.11-.54.31-.23.17.26 1.02.54 1.9.63m-13.01 1.65c0 .3-.36.65-.8.77-.97.25-1.06 1.3-.14 1.65.51.2.56.13.2-.3-.54-.65-.13-1.22.5-.7.3.24.47-.01.52-.8.05-.65 0-1.17-.1-1.17s-.18.25-.18.55m23.47.15c-.22.35.75 1.34 1.04 1.06.1-.1.29.06.41.38.16.42-.01.52-.65.37-.86-.2-.86-.2-.07.46.8.67.8.67-.05.27-.46-.23-.94-.31-1.06-.2-.13.13-.44-.18-.7-.67-.42-.77-.38-.99.24-1.44.81-.6 1.1-.68.84-.23m64.44.83c.08.26-.05.47-.3.47s-.34-.22-.2-.5c.13-.28-.03-.15-.38.28-.5.6-.63.64-.63.16 0-1.16 1.15-1.48 1.5-.41m12.72 2.44c-.13.2-.05.49.18.63.23.14.3.43.18.63-.36.59-.92.05-.77-.73.17-.93.16-.9.41-.9.13 0 .12.17 0 .37m-52.05 3.27c-.19.3.28.5 1.04.44.27-.03.23 3.81-.04 4.08-.1.11-.43-.17-.72-.62-.28-.45-.34-.72-.12-.58.55.34.79-.59.44-1.76-.16-.55-.32-.73-.35-.4-.05.38-.2.27-.43-.3-.2-.5-.56-.9-.8-.9s-.33-.17-.2-.38.5-.28.82-.16c.32.12.49.38.36.58m12.67.84c.23.42.6.62.86.46.34-.21.34-.33-.02-.45-.27-.09-.4-.3-.3-.46.1-.16-.07-.3-.38-.3-.42 0-.46.19-.16.75m-25.27 3c.09.07-.03.12-.26.12s-.85-.37-1.37-.82l-.94-.83 1.2.7c.66.4 1.28.76 1.37.83m-39.8-.58c.15-.15.15.04 0 .42-.19.5-.4.58-.75.3-.65-.54-1.13-.04-.6.61.33.39.23.46-.4.3-.96-.26-.97-.3-.34-1.3.35-.56.66-.68 1.15-.42.36.2.79.24.94.09m33.21.73c-.38.61.48.42 1.02-.23.27-.33.8-.58 1.15-.55.57.04.57.06-.03.22-.42.11-.6.43-.46.86.18.57.15.58-.22.07-.37-.52-.43-.5-.43.1 0 .48-.33.7-1.02.7-.87 0-.96-.1-.62-.75.22-.4.27-.89.12-1.06-.16-.18-.06-.19.22-.03s.4.46.27.67m68.44-.06c-.15.24-.56.43-.92.43-.55 0-.53-.1.12-.57.84-.61 1.22-.54.8.14m-117.11.76c.09.26-.1.47-.41.47-.31 0-.57-.28-.57-.61 0-.7.74-.59.98.14m116.49.52c0 .3.23.28.7-.08.66-.5.66-.48.04.2-.37.4-.86.6-1.1.45-.55-.34-.58-1.02-.04-1.02.22 0 .4.2.4.45m-44.96 3.22c.2.3.08.39-.33.23-1.59-.61-2.2 3.33-.71 4.6.58.5.8 1.19.8 2.5 0 1.47.13 1.8.72 1.8s.69.26.55 1.42c-.13 1.18-.02 1.47.65 1.64.83.22 1.5 1.86 1.06 2.58-.41.66.19 2.36.83 2.36.41 0 .59.44.59 1.44 0 1.1.19 1.48.8 1.64.66.18.8.55.8 2.2 0 1.66.13 2.03.8 2.2.68.18.8.55.8 2.4 0 1.86.12 2.23.8 2.4.63.17.8.55.8 1.77 0 1.28.14 1.55.8 1.55.7 0 .8.27.8 2.15 0 1.82.13 2.19.8 2.37.61.16.8.54.8 1.64 0 1.17.15 1.44.8 1.44.53 0 .8.27.8.8 0 .63.27.8 1.23.8 1.15 0 1.22-.08.98-1.15l-.25-1.15 4.1-.07c2.27-.04 4.2-.16 4.3-.27.11-.1-1.9-.16-4.48-.13-2.57.03-4.59.2-4.47.38.11.19.02.45-.2.59-.23.13-.41-.03-.41-.38 0-.34-.2-.62-.42-.62-.24 0-.3.2-.14.46.18.29.1.36-.18.18-.55-.34-.62-1.44-.08-1.44.2 0 .49.18.62.4.52.84.9-.05.94-2.2.05-1.95-.03-2.2-.74-2.2-.67 0-.8-.27-.8-1.6s-.13-1.6-.8-1.6c-.83 0-.97-.6-.81-3.5.06-1.07-.07-1.3-.76-1.3-.53 0-.83-.26-.83-.72 0-.97-1.47-2.5-2.14-2.25-.3.11-.74-.05-1-.36-.39-.46-.3-.53.54-.37.96.19 1 .12 1-1.85 0-1.76-.11-2.05-.77-2.05-.42 0-.85-.22-.94-.5-.1-.28-.1-.06 0 .47.15.88.1.92-.54.4-.63-.51-.67-.5-.4.23.23.63.2.7-.19.32-.38-.38-.38-.61 0-1.07.4-.47.33-.63-.34-.84-1.12-.36-.57-1.13.63-.9.87.16.95.05.95-1.36 0-1.28-.14-1.55-.8-1.55-.67 0-.8-.27-.8-1.6s-.13-1.6-.8-1.6c-.7 0-.8-.27-.8-2.17 0-1.95-.1-2.19-.9-2.3-.78-.11-.88-.33-.77-1.6.14-1.59-.13-1.7-1.93-.79-.94.47-.95.47-.22-.12.65-.52.69-.7.24-1.12-.33-.3-.44-.32-.28-.04.14.25-.01.56-.34.69-.88.33-.73-.41.2-1.06.9-.64.97-2.69.09-2.69-.3 0-.41.2-.25.47m-57.44 5.3c0 2.54-.34 3.16-1.5 2.73-1.1-.4-.64-5.3.5-5.3.96 0 1 .1 1 2.57m72.48-.58c.14.9.06 1.1-.3.79-.28-.23-.4-.76-.3-1.2.29-1.06.4-.99.6.41m-13.21 3.03c-.45.6-.76.75-.96.44-.16-.26-.03-.52.3-.59.33-.07.52-.27.41-.43-.1-.17.06-.3.37-.3.43 0 .4.18-.12.88m-73.27.8c0 .58-.17.92-.4.78-.22-.14-.4-.6-.4-1.02 0-.43.18-.78.4-.78.22 0 .4.46.4 1.02m75.06 2.28c.56.88.53 1.6-.03 1.13-.28-.23-.65-.29-.83-.13-.18.17-.2.09-.06-.18.15-.26-.04-.66-.43-.88-.64-.38-.63-.42.17-.43.48 0 1.01.22 1.19.49m22.71.33c-.31.5-1.38.47-1.38-.05 0-.24.18-.32.4-.18.22.14.4.05.4-.2s.18-.33.4-.2c.23.14.3.42.18.63m-41.77 3.57c.48.91.46.95-.15.45-.36-.3-.66-.4-.66-.23s-.1.22-.2.1c-.13-.11-.1-.5.04-.88.3-.77.28-.78.97.56m-55.89-.2c.04.21-.28.43-.72.47l-.8.08.8-.23.8-.23-.8-.34c-.66-.28-.67-.33-.08-.25.4.06.76.28.8.5m13.82.53c-.11.83.13 1.27.7 1.27.54 0 .57.1.16.6-.67.8-1.24.76-.92-.07.2-.53.1-.6-.5-.38-.41.16-.63.17-.48.02.15-.15.11-.57-.08-.94-.27-.5-.18-.68.4-.72.42-.03.75.06.72.22M184.6 238c0 .3-.27.6-.6.7-.53.14-.53.11 0-.27s.53-.48 0-.86-.53-.41 0-.27c.33.1.6.4.6.7m15.44-.03c.38-.56.07 1.43-.32 2.13-.4.72-.92.25-.53-.5.35-.63.31-.74-.16-.56-.4.16-.57-.02-.52-.58.04-.65.17-.72.6-.37.42.35.64.32.93-.12m-46.32 2c-.17.66-.32.71-.96.31-1.02-.63-.96-1.06.1-.78.64.17.78.1.54-.3-.2-.33-.17-.43.1-.26.23.14.33.61.22 1.04m-11.55 5.83 1 1-1.14-.09c-.75-.05-1.07-.26-.94-.6.1-.29-.01-.52-.27-.52s-.36-.18-.22-.4c.35-.56.44-.52 1.57.6m77.69 1.7c.1.62-.04.8-.44.65-.31-.12-.54-.56-.5-.99.07-1.01.77-.76.94.35m-58.34-.1c.37-.05.45-.02.18.08-.94.32-.5.8.6.66 1.1-.15 1.1-.15-.08.24-1.36.44-1.25.5-1.57-.79-.13-.55-.15-.8-.03-.54.12.25.53.41.9.35m59.17 3.95c.65-.2.65-.18-.02.25-.73.46-2.27-.4-2.27-1.27 0-.19.36.02.8.45.45.46 1.08.7 1.5.57m20.1.61c0 .24-.14.4-.3.38-.78-.12-.95.1-.5.66.43.5.4.57-.1.38-.34-.14-.7.04-.85.41-.13.36-.44.53-.68.38-.28-.17-.13-.54.4-1.04.83-.77 1-1.23.85-2.3-.07-.44.05-.42.55.07.35.35.63.83.63 1.06m-81.14 7.5c.24.3.75.53 1.12.53.38 0 .69-.24.69-.53 0-.3-.46-.53-1.13-.53-.88 0-1.02.12-.68.53m.74 1.53c0 .26.24.47.53.47.3 0 .54-.21.54-.47s-.24-.47-.54-.47c-.29 0-.53.21-.53.47m139.1 37.9.07.9-21.04-.09c-11.57-.04-21.13-.18-21.25-.3-.12-.12-.59.1-1.05.49-.83.7-.83.7-.07-.2.56-.66.9-.78 1.27-.48.37.3.6.25.85-.2.3-.54 2.83-.63 20.73-.72 11.22-.06 20.4-.15 20.4-.2.01-.06.05.3.09.8m-199.63 0c-.63.47-.67 2.56-.58 29.56.06 15.99-.03 28.98-.19 28.88-.37-.23-.4-58.3-.03-58.67.14-.15.54-.27.87-.27.51 0 .5.08-.07.5m152.88.92c.12.65.06.68-.5.22-.77-.64-.86-1.38-.15-1.14.28.1.57.5.65.92M98.3 342.67c-.06 8.1-.11 1.59-.11-14.47 0-16.06.05-22.69.11-14.73.06 7.96.06 21.1 0 29.2m153.21-42.26c.47.75.45.77-.3.3-.45-.27-.81-.64-.81-.8 0-.58.6-.3 1.11.5m-3.57 1.12c-.5.71-.64.73-1.35.2-.55-.41-.6-.57-.19-.51 1.3.17 1.69-.02 1.42-.72-.2-.54-.16-.59.2-.23.36.35.34.65-.08 1.26m-2.34.44c0 .52-1.25 1.72-1.51 1.45-.12-.12.1-.58.5-1.02.82-.9 1.01-.97 1.01-.43m-6.25 9.54c.1.18-.29.36-.88.4-.82.06-.93 0-.47-.3.73-.49 1.1-.5 1.35-.1m81.97 2.92c.76.71.78.78.11.53-.43-.17-.67-.14-.54.07.13.2.01.57-.25.81-.37.34-.48.12-.48-.9 0-1.58.01-1.58 1.16-.51m-247.11 3.6c.03.44-.12.91-.34 1.05-.22.13-.28.05-.13-.18.15-.24.04-.54-.24-.67-.4-.18-.4-.28 0-.46a.5.5 0 0 0 .24-.7c-.15-.26-.12-.33.07-.16s.37.67.4 1.11m243.15-.31c.16-.16.17.07.03.5-.25.78-.25.78.38.01.35-.42.63-.57.63-.32 0 .69-.82 1.14-2.25 1.25-.53.04-.56.16-.15.65.63.76.13.79-.62.04-.48-.48-.48-.6.02-.79.32-.12.53-.45.46-.74-.07-.28-.05-.38.04-.21.43.77.89.21.5-.6-.4-.8-.39-.83.12-.2.3.38.69.56.84.4m-79.76 4.32c0 2.39-.16 3.98-.4 3.98-.24 0-.4-1.68-.4-4.22 0-2.72.14-4.14.4-3.98.22.14.4 2 .4 4.22m77.28-1.25c-.15.4-.05.46.35.22.48-.29.48-.23 0 .37-.56.67-.6.66-.93-.22-.28-.76-.4-.81-.71-.33-.32.5-.38.5-.38-.07 0-.44.3-.64.94-.6.64.04.88.24.73.63m-1.29 2.18c0 .26-.15.22-.35-.1-.2-.3-.55-.43-.8-.28-.27.17-.34.04-.19-.36.27-.7 1.36-.1 1.34.74m-4.56 2.56c-.16.15-.83.3-1.5.34-.66.03-1.4.26-1.65.51-.34.34-.02.4 1.23.24 1.01-.12 1.69-.05 1.69.2 0 .22.27.4.6.4.33 0 .6-.35.6-.78 0-.85-.53-1.36-.97-.92m-71.71 8.03c.04 3.76-.05 6.7-.2 6.55-.16-.16-.3-3.16-.32-6.68-.04-7.59-.06-7.19.22-6.91.12.12.25 3.29.3 7.04M74.09 347.84c-.08 9.4.03 15.22.27 15.52.28.33.2.47-.28.47-.57 0-.91-21.97-.48-30.93 0-.05.14-.1.3-.1.16 0 .25 6.77.19 15.04m1.11.56c0 9.6-.14 14.8-.4 14.8s-.4-5.2-.4-14.8c0-9.6.14-14.8.4-14.8s.4 5.2.4 14.8m221.29-10.73c-.48.19-.51.28-.12.3.3.02.47.12.35.24-.11.12-.49.1-.83-.03-.56-.22-.56-.31.04-.93.44-.45.77-.55.95-.27.16.23-.02.54-.4.7m-1.68 1.55c0 .2-.2.37-.42.37-.24 0-.32.18-.18.4.14.22.08.4-.13.4-.76 0-.78-1.44-.01-1.5.4-.02.74.12.74.33m-1.6 1.7c0 .3-.27.54-.6.54-1.02 0-.7-.66.5-1.04.05-.02.1.21.1.5m-55.28 6.02-.08 5.65-.24-5.6-.23-5.6-.09 5.73c-.11 7.88-1.03 7.93-1.2.06-.12-6.05-.05-6.41 1.1-6.11.78.2.82.46.74 5.87m-1.36-.15c0 3.19.06 4.5.14 2.9.07-1.6.07-4.2 0-5.8-.08-1.6-.14-.29-.14 2.9m54.88-4.33c.42.48.54.74.26.57-.27-.16-.5-.1-.5.1 0 .68-1.27 1.72-1.83 1.5-.34-.13-.45.01-.3.4.39 1.01-1.16 2.18-1.87 1.42-.5-.53-.5-.58.08-.36.37.14.86.02 1.1-.27.33-.41.2-.5-.68-.39-.6.07-.78.03-.4-.08.4-.12.6-.39.48-.59-.12-.2-.03-.37.22-.37s.32-.2.16-.46c-.18-.3-.1-.36.2-.16.52.32 1.7-.94 1.38-1.47-.1-.17.13-.18.5-.04.47.18.6.12.4-.2-.47-.76-.02-.54.8.4m-8.21 6.04c-.05.48-.6.39-.77-.13-.09-.26.06-.4.32-.32.26.09.47.3.45.45m-.03 1.62c0 .58-1.39.64-1.9.08-.16-.19-.11-.23.12-.1.23.13.68.07 1-.13.76-.48.78-.47.78.15m-81.5 9.37c-18.53.06-48.86.06-67.4 0-18.54-.06-3.37-.1 33.7-.1s52.24.04 33.7.1m-127.25 7.8c-.13.81-.26 1.03-.36.58-.15-.7.12-1.88.43-1.88.08 0 .05.58-.07 1.3m190.35.41c0 .23-.12.3-.26.16-.15-.14-.49-.08-.75.14-.35.3-.55.2-.69-.34-.15-.6 0-.7.75-.56.52.1.95.37.95.6M88.1 384.4c-.28.34-1.29-1.3-1.04-1.7.13-.2.45.05.72.56.27.52.41 1.03.32 1.14m160.1-1.2c.14.22.12.6-.03.84-.26.44-.95-.23-.96-.94-.01-.44.7-.37.99.1"/></g></svg>